<svg width="191" height="42" viewBox="0 0 191 42" fill="none" xmlns="http://www.w3.org/2000/svg">
<mask id="path-1-outside-1_2005_4" maskUnits="userSpaceOnUse" x="124.371" y="3" width="61" height="38" fill="black">
<rect fill="white" x="124.371" y="3" width="61" height="38"/>
<path d="M156.153 21.0469C156.153 22.4688 155.989 23.8438 155.66 25.1719C155.332 26.4844 154.856 27.7188 154.231 28.875C153.621 30.0312 152.871 31.0938 151.981 32.0625C151.106 33.0156 150.114 33.8359 149.004 34.5234C147.91 35.2109 146.715 35.75 145.418 36.1406C144.121 36.5156 142.746 36.7031 141.293 36.7031C139.887 36.7031 138.543 36.5234 137.262 36.1641C135.996 35.8047 134.809 35.3047 133.699 34.6641C132.59 34.0078 131.582 33.2266 130.676 32.3203C129.785 31.3984 129.02 30.3828 128.379 29.2734C127.754 28.1484 127.262 26.9453 126.903 25.6641C126.559 24.3828 126.387 23.0469 126.387 21.6562C126.387 20.2969 126.551 18.9688 126.879 17.6719C127.207 16.3594 127.676 15.125 128.285 13.9688C128.91 12.8125 129.66 11.75 130.535 10.7812C131.41 9.8125 132.387 8.97656 133.465 8.27344C134.559 7.57031 135.739 7.02344 137.004 6.63281C138.27 6.24219 139.606 6.04688 141.012 6.04688C143.278 6.04688 145.34 6.39844 147.199 7.10156C149.074 7.80469 150.668 8.8125 151.981 10.125C153.309 11.4219 154.332 13 155.051 14.8594C155.785 16.7031 156.153 18.7656 156.153 21.0469ZM145.746 21.6562C145.746 20.9844 145.645 20.3359 145.442 19.7109C145.254 19.0703 144.973 18.5078 144.598 18.0234C144.223 17.5234 143.754 17.125 143.192 16.8281C142.645 16.5156 142.012 16.3594 141.293 16.3594C140.559 16.3594 139.903 16.4922 139.324 16.7578C138.746 17.0234 138.246 17.3906 137.824 17.8594C137.418 18.3125 137.106 18.8516 136.887 19.4766C136.668 20.0859 136.559 20.7344 136.559 21.4219C136.559 22.0781 136.653 22.7344 136.84 23.3906C137.028 24.0469 137.309 24.6406 137.684 25.1719C138.059 25.7031 138.52 26.1328 139.067 26.4609C139.629 26.7891 140.278 26.9531 141.012 26.9531C141.746 26.9531 142.403 26.8125 142.981 26.5312C143.574 26.2344 144.074 25.8438 144.481 25.3594C144.887 24.8594 145.199 24.2891 145.418 23.6484C145.637 23.0078 145.746 22.3438 145.746 21.6562ZM182.614 5.95312L182.379 15.8906L175.395 16.1719L174.551 37.9219L164.66 38.4375L163.77 16.6875L156.785 17.0625L157.067 6L182.614 5.95312Z"/>
</mask>
<path d="M156.153 21.0469C156.153 22.4688 155.989 23.8438 155.66 25.1719C155.332 26.4844 154.856 27.7188 154.231 28.875C153.621 30.0312 152.871 31.0938 151.981 32.0625C151.106 33.0156 150.114 33.8359 149.004 34.5234C147.91 35.2109 146.715 35.75 145.418 36.1406C144.121 36.5156 142.746 36.7031 141.293 36.7031C139.887 36.7031 138.543 36.5234 137.262 36.1641C135.996 35.8047 134.809 35.3047 133.699 34.6641C132.59 34.0078 131.582 33.2266 130.676 32.3203C129.785 31.3984 129.02 30.3828 128.379 29.2734C127.754 28.1484 127.262 26.9453 126.903 25.6641C126.559 24.3828 126.387 23.0469 126.387 21.6562C126.387 20.2969 126.551 18.9688 126.879 17.6719C127.207 16.3594 127.676 15.125 128.285 13.9688C128.91 12.8125 129.66 11.75 130.535 10.7812C131.41 9.8125 132.387 8.97656 133.465 8.27344C134.559 7.57031 135.739 7.02344 137.004 6.63281C138.27 6.24219 139.606 6.04688 141.012 6.04688C143.278 6.04688 145.34 6.39844 147.199 7.10156C149.074 7.80469 150.668 8.8125 151.981 10.125C153.309 11.4219 154.332 13 155.051 14.8594C155.785 16.7031 156.153 18.7656 156.153 21.0469ZM145.746 21.6562C145.746 20.9844 145.645 20.3359 145.442 19.7109C145.254 19.0703 144.973 18.5078 144.598 18.0234C144.223 17.5234 143.754 17.125 143.192 16.8281C142.645 16.5156 142.012 16.3594 141.293 16.3594C140.559 16.3594 139.903 16.4922 139.324 16.7578C138.746 17.0234 138.246 17.3906 137.824 17.8594C137.418 18.3125 137.106 18.8516 136.887 19.4766C136.668 20.0859 136.559 20.7344 136.559 21.4219C136.559 22.0781 136.653 22.7344 136.84 23.3906C137.028 24.0469 137.309 24.6406 137.684 25.1719C138.059 25.7031 138.52 26.1328 139.067 26.4609C139.629 26.7891 140.278 26.9531 141.012 26.9531C141.746 26.9531 142.403 26.8125 142.981 26.5312C143.574 26.2344 144.074 25.8438 144.481 25.3594C144.887 24.8594 145.199 24.2891 145.418 23.6484C145.637 23.0078 145.746 22.3438 145.746 21.6562ZM182.614 5.95312L182.379 15.8906L175.395 16.1719L174.551 37.9219L164.66 38.4375L163.77 16.6875L156.785 17.0625L157.067 6L182.614 5.95312Z" fill="#CE0003"/>
<path d="M155.66 25.1719L157.601 25.6569L157.602 25.6516L155.66 25.1719ZM154.231 28.875L152.471 27.924L152.466 27.9332L152.461 27.9425L154.231 28.875ZM151.981 32.0625L150.508 30.7089L150.507 30.71L151.981 32.0625ZM149.004 34.5234L147.951 32.8234L147.94 32.8302L149.004 34.5234ZM145.418 36.1406L145.974 38.0619L145.984 38.0588L145.995 38.0556L145.418 36.1406ZM137.262 36.1641L136.716 38.088L136.722 38.0897L137.262 36.1641ZM133.699 34.6641L132.681 36.3854L132.69 36.3908L132.699 36.396L133.699 34.6641ZM130.676 32.3203L129.238 33.7099L129.25 33.7223L129.262 33.7345L130.676 32.3203ZM128.379 29.2734L126.631 30.2447L126.639 30.2592L126.647 30.2736L128.379 29.2734ZM126.903 25.6641L124.971 26.1823L124.974 26.1933L124.977 26.2042L126.903 25.6641ZM126.879 17.6719L128.818 18.1624L128.819 18.1569L126.879 17.6719ZM128.285 13.9688L126.526 13.0177L126.521 13.027L126.516 13.0363L128.285 13.9688ZM133.465 8.27344L132.384 6.59104L132.373 6.59822L133.465 8.27344ZM147.199 7.10156L146.492 8.97228L146.497 8.97422L147.199 7.10156ZM151.981 10.125L150.566 11.5392L150.575 11.5476L150.583 11.5559L151.981 10.125ZM155.051 14.8594L153.186 15.5805L153.189 15.59L153.193 15.5994L155.051 14.8594ZM145.442 19.7109L143.522 20.2727L143.53 20.3011L143.54 20.3291L145.442 19.7109ZM144.598 18.0234L142.998 19.2234L143.007 19.2357L143.016 19.2478L144.598 18.0234ZM143.192 16.8281L142.199 18.5646L142.228 18.5812L142.258 18.5969L143.192 16.8281ZM137.824 17.8594L136.338 16.5214L136.335 16.5243L137.824 17.8594ZM136.887 19.4766L138.769 20.1523L138.772 20.1448L138.775 20.1373L136.887 19.4766ZM139.067 26.4609L138.038 28.1759L138.048 28.1823L138.059 28.1885L139.067 26.4609ZM142.981 26.5312L143.856 28.3297L143.865 28.325L143.875 28.3201L142.981 26.5312ZM144.481 25.3594L146.013 26.6446L146.023 26.6327L146.033 26.6206L144.481 25.3594ZM154.153 21.0469C154.153 22.3134 154.007 23.5271 153.719 24.6922L157.602 25.6516C157.97 24.1604 158.153 22.6241 158.153 21.0469H154.153ZM153.72 24.6868C153.431 25.8418 153.014 26.9191 152.471 27.924L155.99 29.826C156.697 28.5184 157.233 27.1269 157.601 25.6569L153.72 24.6868ZM152.461 27.9425C151.933 28.9451 151.283 29.8663 150.508 30.7089L153.453 33.4161C154.46 32.3212 155.31 31.1174 156 29.8075L152.461 27.9425ZM150.507 30.71C149.757 31.5275 148.906 32.2312 147.951 32.8234L150.058 36.2235C151.321 35.4407 152.455 34.5038 153.454 33.415L150.507 30.71ZM147.94 32.8302C147.005 33.4177 145.975 33.8842 144.841 34.2256L145.995 38.0556C147.455 37.6158 148.816 37.0042 150.068 36.2167L147.94 32.8302ZM144.863 34.2193C143.76 34.5383 142.573 34.7031 141.293 34.7031V38.7031C142.92 38.7031 144.483 38.493 145.974 38.0619L144.863 34.2193ZM141.293 34.7031C140.059 34.7031 138.898 34.5457 137.802 34.2384L136.722 38.0897C138.189 38.5012 139.715 38.7031 141.293 38.7031V34.7031ZM137.808 34.2401C136.697 33.9246 135.662 33.4881 134.7 32.9321L132.699 36.396C133.955 37.1213 135.296 37.6848 136.716 38.088L137.808 34.2401ZM134.718 32.9427C133.752 32.3713 132.877 31.6931 132.09 30.9061L129.262 33.7345C130.287 34.76 131.428 35.6443 132.681 36.3854L134.718 32.9427ZM132.114 30.9307C131.337 30.1261 130.67 29.2413 130.111 28.2733L126.647 30.2736C127.369 31.5244 128.234 32.6708 129.238 33.7099L132.114 30.9307ZM130.127 28.3022C129.581 27.318 129.147 26.2602 128.828 25.1239L124.977 26.2042C125.377 27.6305 125.928 28.9788 126.631 30.2447L130.127 28.3022ZM128.834 25.1458C128.538 24.0416 128.387 22.8803 128.387 21.6562H124.387C124.387 23.2134 124.58 24.7241 124.971 26.1823L128.834 25.1458ZM128.387 21.6562C128.387 20.4596 128.531 19.2964 128.818 18.1624L124.94 17.1813C124.571 18.6411 124.387 20.1342 124.387 21.6562H128.387ZM128.819 18.1569C129.11 16.9944 129.523 15.9108 130.055 14.9012L126.516 13.0363C125.829 14.3392 125.304 15.7243 124.939 17.1868L128.819 18.1569ZM130.045 14.9198C130.594 13.9029 131.252 12.9714 132.02 12.1218L129.051 9.44068C128.069 10.5286 127.226 11.7221 126.526 13.0177L130.045 14.9198ZM132.02 12.1218C132.781 11.2792 133.626 10.5562 134.558 9.94866L132.373 6.59822C131.148 7.39688 130.04 8.34579 129.051 9.44068L132.02 12.1218ZM134.547 9.95579C135.485 9.3527 136.499 8.88194 137.594 8.54386L136.414 4.72177C134.978 5.16494 133.633 5.78792 132.384 6.59108L134.547 9.95579ZM137.594 8.54386C138.657 8.21574 139.793 8.04688 141.012 8.04688V4.04688C139.418 4.04688 137.882 4.26864 136.414 4.72177L137.594 8.54386ZM141.012 8.04688C143.069 8.04688 144.888 8.3657 146.492 8.97228L147.907 5.23085C145.792 4.43117 143.486 4.04688 141.012 4.04688V8.04688ZM146.497 8.97422C148.126 9.58512 149.471 10.4441 150.566 11.5392L153.395 8.71079C151.865 7.18086 150.023 6.02426 147.902 5.2289L146.497 8.97422ZM150.583 11.5559C151.692 12.638 152.562 13.9685 153.186 15.5805L156.916 14.1383C156.102 12.0315 154.926 10.2058 153.378 8.69405L150.583 11.5559ZM153.193 15.5994C153.821 17.1753 154.153 18.9816 154.153 21.0469H158.153C158.153 18.5496 157.75 16.231 156.909 14.1193L153.193 15.5994ZM147.746 21.6562C147.746 20.7792 147.613 19.9219 147.344 19.0928L143.54 20.3291C143.676 20.75 143.746 21.1895 143.746 21.6562H147.746ZM147.361 19.1491C147.11 18.2901 146.721 17.4983 146.179 16.7991L143.016 19.2478C143.225 19.5173 143.399 19.8505 143.522 20.2727L147.361 19.1491ZM146.198 16.8234C145.642 16.0826 144.944 15.4917 144.125 15.0594L142.258 18.5969C142.564 18.7583 142.803 18.9642 142.998 19.2234L146.198 16.8234ZM144.184 15.0916C143.294 14.5833 142.31 14.3594 141.293 14.3594V18.3594C141.714 18.3594 141.995 18.448 142.199 18.5646L144.184 15.0916ZM141.293 14.3594C140.315 14.3594 139.367 14.5373 138.489 14.9405L140.159 18.5752C140.438 18.4471 140.803 18.3594 141.293 18.3594V14.3594ZM138.489 14.9405C137.666 15.3188 136.944 15.8483 136.338 16.5214L139.311 19.1973C139.549 18.9329 139.827 18.7281 140.159 18.5752L138.489 14.9405ZM136.335 16.5243C135.738 17.1904 135.297 17.9641 134.999 18.8159L138.775 20.1373C138.914 19.7391 139.098 19.4346 139.314 19.1945L136.335 16.5243ZM135.005 18.8008C134.703 19.6401 134.559 20.5184 134.559 21.4219H138.559C138.559 20.9504 138.633 20.5318 138.769 20.1523L135.005 18.8008ZM134.559 21.4219C134.559 22.2713 134.681 23.1123 134.917 23.9401L138.763 22.8412C138.625 22.3564 138.559 21.885 138.559 21.4219H134.559ZM134.917 23.9401C135.163 24.8016 135.539 25.6014 136.05 26.3252L139.318 24.0185C139.079 23.6799 138.892 23.2921 138.763 22.8412L134.917 23.9401ZM136.05 26.3252C136.582 27.0791 137.248 27.7018 138.038 28.1759L140.096 24.746C139.792 24.5638 139.536 24.3271 139.318 24.0185L136.05 26.3252ZM138.059 28.1885C138.965 28.717 139.97 28.9531 141.012 28.9531V24.9531C140.586 24.9531 140.293 24.8612 140.074 24.7334L138.059 28.1885ZM141.012 28.9531C142.006 28.9531 142.969 28.7613 143.856 28.3297L142.106 24.7328C141.837 24.8637 141.486 24.9531 141.012 24.9531V28.9531ZM143.875 28.3201C144.701 27.907 145.422 27.3492 146.013 26.6446L142.948 24.0742C142.727 24.3383 142.448 24.5617 142.086 24.7424L143.875 28.3201ZM146.033 26.6206C146.596 25.9281 147.02 25.1473 147.311 24.2947L143.526 23.0021C143.379 23.4308 143.178 23.7906 142.928 24.0982L146.033 26.6206ZM147.311 24.2947C147.602 23.4428 147.746 22.5601 147.746 21.6562H143.746C143.746 22.1274 143.672 22.5729 143.526 23.0021L147.311 24.2947ZM182.614 5.95312L184.613 6.00028L184.661 3.94936L182.61 3.95313L182.614 5.95312ZM182.379 15.8906L182.46 17.889L184.334 17.8135L184.379 15.9378L182.379 15.8906ZM175.395 16.1719L175.314 14.1735L173.468 14.2478L173.396 16.0943L175.395 16.1719ZM174.551 37.9219L174.655 39.9192L176.479 39.8241L176.55 37.9994L174.551 37.9219ZM164.66 38.4375L162.662 38.5193L162.745 40.5401L164.765 40.4348L164.66 38.4375ZM163.77 16.6875L165.768 16.6057L165.685 14.5818L163.663 14.6904L163.77 16.6875ZM156.785 17.0625L154.786 17.0117L154.731 19.1757L156.893 19.0596L156.785 17.0625ZM157.067 6L157.063 4L155.117 4.00357L155.067 5.94917L157.067 6ZM180.614 5.90597L180.38 15.8435L184.379 15.9378L184.613 6.00028L180.614 5.90597ZM182.299 13.8922L175.314 14.1735L175.475 18.1703L182.46 17.889L182.299 13.8922ZM173.396 16.0943L172.553 37.8443L176.55 37.9994L177.393 16.2494L173.396 16.0943ZM174.447 35.9246L164.556 36.4402L164.765 40.4348L174.655 39.9192L174.447 35.9246ZM166.659 38.3557L165.768 16.6057L161.771 16.7693L162.662 38.5193L166.659 38.3557ZM163.663 14.6904L156.678 15.0654L156.893 19.0596L163.877 18.6846L163.663 14.6904ZM158.785 17.1133L159.066 6.05083L155.067 5.94917L154.786 17.0117L158.785 17.1133ZM157.07 8L182.617 7.95312L182.61 3.95313L157.063 4L157.07 8Z" fill="black" mask="url(#path-1-outside-1_2005_4)"/>
<mask id="path-3-outside-2_2005_4" maskUnits="userSpaceOnUse" x="13" y="1" width="118" height="40" fill="black">
<rect fill="white" x="13" y="1" width="118" height="40"/>
<path d="M39.4453 5.04688L38.1328 14.9375C37.6797 14.8125 37.2266 14.7266 36.7734 14.6797C36.3203 14.6328 35.8672 14.6094 35.4141 14.6094C34.2578 14.6094 33.1562 14.7656 32.1094 15.0781C31.0625 15.375 30.1328 15.8359 29.3203 16.4609C28.5234 17.0859 27.8828 17.8672 27.3984 18.8047C26.9297 19.7422 26.6953 20.8438 26.6953 22.1094C26.6953 22.9219 26.8203 23.625 27.0703 24.2188C27.3359 24.8125 27.7031 25.3047 28.1719 25.6953C28.6406 26.0859 29.1953 26.375 29.8359 26.5625C30.4766 26.75 31.1797 26.8438 31.9453 26.8438C32.5234 26.8438 33.125 26.7812 33.75 26.6562C34.375 26.5312 34.9922 26.3672 35.6016 26.1641C36.2109 25.9609 36.8047 25.7266 37.3828 25.4609C37.9609 25.1953 38.4922 24.9219 38.9766 24.6406L38.0391 35.6562C37.4297 35.9688 36.7656 36.25 36.0469 36.5C35.3437 36.7344 34.6172 36.9453 33.8672 37.1328C33.1172 37.3047 32.3672 37.4375 31.6172 37.5312C30.8672 37.625 30.1484 37.6719 29.4609 37.6719C27.4766 37.6719 25.625 37.3047 23.9062 36.5703C22.1875 35.8359 20.6953 34.8281 19.4297 33.5469C18.1641 32.2656 17.1641 30.7578 16.4297 29.0234C15.7109 27.2734 15.3516 25.3906 15.3516 23.375C15.3516 20.7031 15.7344 18.1875 16.5 15.8281C17.2656 13.4531 18.3906 11.375 19.875 9.59375C21.3594 7.8125 23.1953 6.40625 25.3828 5.375C27.5859 4.34375 30.1172 3.82812 32.9766 3.82812C34.0547 3.82812 35.1562 3.91406 36.2812 4.08594C37.4219 4.25781 38.4766 4.57812 39.4453 5.04688ZM70.4766 35.9844L58.8516 37.4844L57.4453 32.1875H52.1016L50.9297 37.4844L38.9766 36.3125L48.3047 5.09375L61.3359 4.4375L70.4766 35.9844ZM56.6016 25.0156L54.8203 16.8594L53.0859 25.0156H56.6016ZM98.2734 15.4531C98.2734 16.9688 98.0469 18.3125 97.5937 19.4844C97.1406 20.6562 96.5156 21.6797 95.7187 22.5547C94.9375 23.4297 94.0156 24.1719 92.9531 24.7812C91.8906 25.3906 90.75 25.8906 89.5312 26.2812C88.3281 26.6562 87.0781 26.9375 85.7812 27.125C84.4844 27.2969 83.2109 27.3906 81.9609 27.4062V38.3281H71.0391C71.0391 34.75 71.0469 31.1875 71.0625 27.6406C71.0781 24.0938 71.1016 20.5156 71.1328 16.9062C71.1641 15 71.1719 13.0937 71.1562 11.1875C71.1406 9.28125 71.1797 7.35938 71.2734 5.42188C73.2734 4.82813 75.2734 4.38281 77.2734 4.08594C79.2734 3.78906 81.3359 3.64062 83.4609 3.64062C84.6641 3.64062 85.8672 3.74219 87.0703 3.94531C88.2734 4.13281 89.4219 4.4375 90.5156 4.85938C91.625 5.28125 92.6484 5.8125 93.5859 6.45312C94.5391 7.07813 95.3594 7.82813 96.0469 8.70312C96.7344 9.57812 97.2734 10.5781 97.6641 11.7031C98.0703 12.8125 98.2734 14.0625 98.2734 15.4531ZM87.8672 16.25C87.8672 15.2344 87.5547 14.4453 86.9297 13.8828C86.3203 13.3047 85.5234 13.0156 84.5391 13.0156C84.2109 13.0156 83.8672 13.0469 83.5078 13.1094C83.1641 13.1562 82.8359 13.2188 82.5234 13.2969L82.2422 20.1406C82.4609 20.1719 82.6719 20.1875 82.875 20.1875C83.0781 20.1875 83.2891 20.1875 83.5078 20.1875C84.0703 20.1875 84.6094 20.0938 85.125 19.9062C85.6562 19.7188 86.125 19.4531 86.5312 19.1094C86.9375 18.75 87.2578 18.3359 87.4922 17.8672C87.7422 17.3828 87.8672 16.8438 87.8672 16.25ZM128.531 21.4531C128.531 22.875 128.367 24.25 128.039 25.5781C127.711 26.8906 127.234 28.125 126.609 29.2812C126 30.4375 125.25 31.5 124.359 32.4688C123.484 33.4219 122.492 34.2422 121.383 34.9297C120.289 35.6172 119.094 36.1562 117.797 36.5469C116.5 36.9219 115.125 37.1094 113.672 37.1094C112.266 37.1094 110.922 36.9297 109.641 36.5703C108.375 36.2109 107.187 35.7109 106.078 35.0703C104.969 34.4141 103.961 33.6328 103.055 32.7266C102.164 31.8047 101.398 30.7891 100.758 29.6797C100.133 28.5547 99.6406 27.3516 99.2812 26.0703C98.9375 24.7891 98.7656 23.4531 98.7656 22.0625C98.7656 20.7031 98.9297 19.375 99.2578 18.0781C99.5859 16.7656 100.055 15.5312 100.664 14.375C101.289 13.2188 102.039 12.1562 102.914 11.1875C103.789 10.2188 104.766 9.38281 105.844 8.67969C106.937 7.97656 108.117 7.42969 109.383 7.03906C110.648 6.64844 111.984 6.45312 113.391 6.45312C115.656 6.45312 117.719 6.80469 119.578 7.50781C121.453 8.21094 123.047 9.21875 124.359 10.5312C125.687 11.8281 126.711 13.4063 127.43 15.2656C128.164 17.1094 128.531 19.1719 128.531 21.4531ZM118.125 22.0625C118.125 21.3906 118.023 20.7422 117.82 20.1172C117.633 19.4766 117.352 18.9141 116.977 18.4297C116.602 17.9297 116.133 17.5312 115.57 17.2344C115.023 16.9219 114.391 16.7656 113.672 16.7656C112.937 16.7656 112.281 16.8984 111.703 17.1641C111.125 17.4297 110.625 17.7969 110.203 18.2656C109.797 18.7188 109.484 19.2578 109.266 19.8828C109.047 20.4922 108.937 21.1406 108.937 21.8281C108.937 22.4844 109.031 23.1406 109.219 23.7969C109.406 24.4531 109.687 25.0469 110.062 25.5781C110.437 26.1094 110.898 26.5391 111.445 26.8672C112.008 27.1953 112.656 27.3594 113.391 27.3594C114.125 27.3594 114.781 27.2188 115.359 26.9375C115.953 26.6406 116.453 26.25 116.859 25.7656C117.266 25.2656 117.578 24.6953 117.797 24.0547C118.016 23.4141 118.125 22.75 118.125 22.0625Z"/>
</mask>
<path d="M39.4453 5.04688L38.1328 14.9375C37.6797 14.8125 37.2266 14.7266 36.7734 14.6797C36.3203 14.6328 35.8672 14.6094 35.4141 14.6094C34.2578 14.6094 33.1562 14.7656 32.1094 15.0781C31.0625 15.375 30.1328 15.8359 29.3203 16.4609C28.5234 17.0859 27.8828 17.8672 27.3984 18.8047C26.9297 19.7422 26.6953 20.8438 26.6953 22.1094C26.6953 22.9219 26.8203 23.625 27.0703 24.2188C27.3359 24.8125 27.7031 25.3047 28.1719 25.6953C28.6406 26.0859 29.1953 26.375 29.8359 26.5625C30.4766 26.75 31.1797 26.8438 31.9453 26.8438C32.5234 26.8438 33.125 26.7812 33.75 26.6562C34.375 26.5312 34.9922 26.3672 35.6016 26.1641C36.2109 25.9609 36.8047 25.7266 37.3828 25.4609C37.9609 25.1953 38.4922 24.9219 38.9766 24.6406L38.0391 35.6562C37.4297 35.9688 36.7656 36.25 36.0469 36.5C35.3437 36.7344 34.6172 36.9453 33.8672 37.1328C33.1172 37.3047 32.3672 37.4375 31.6172 37.5312C30.8672 37.625 30.1484 37.6719 29.4609 37.6719C27.4766 37.6719 25.625 37.3047 23.9062 36.5703C22.1875 35.8359 20.6953 34.8281 19.4297 33.5469C18.1641 32.2656 17.1641 30.7578 16.4297 29.0234C15.7109 27.2734 15.3516 25.3906 15.3516 23.375C15.3516 20.7031 15.7344 18.1875 16.5 15.8281C17.2656 13.4531 18.3906 11.375 19.875 9.59375C21.3594 7.8125 23.1953 6.40625 25.3828 5.375C27.5859 4.34375 30.1172 3.82812 32.9766 3.82812C34.0547 3.82812 35.1562 3.91406 36.2812 4.08594C37.4219 4.25781 38.4766 4.57812 39.4453 5.04688ZM70.4766 35.9844L58.8516 37.4844L57.4453 32.1875H52.1016L50.9297 37.4844L38.9766 36.3125L48.3047 5.09375L61.3359 4.4375L70.4766 35.9844ZM56.6016 25.0156L54.8203 16.8594L53.0859 25.0156H56.6016ZM98.2734 15.4531C98.2734 16.9688 98.0469 18.3125 97.5937 19.4844C97.1406 20.6562 96.5156 21.6797 95.7187 22.5547C94.9375 23.4297 94.0156 24.1719 92.9531 24.7812C91.8906 25.3906 90.75 25.8906 89.5312 26.2812C88.3281 26.6562 87.0781 26.9375 85.7812 27.125C84.4844 27.2969 83.2109 27.3906 81.9609 27.4062V38.3281H71.0391C71.0391 34.75 71.0469 31.1875 71.0625 27.6406C71.0781 24.0938 71.1016 20.5156 71.1328 16.9062C71.1641 15 71.1719 13.0937 71.1562 11.1875C71.1406 9.28125 71.1797 7.35938 71.2734 5.42188C73.2734 4.82813 75.2734 4.38281 77.2734 4.08594C79.2734 3.78906 81.3359 3.64062 83.4609 3.64062C84.6641 3.64062 85.8672 3.74219 87.0703 3.94531C88.2734 4.13281 89.4219 4.4375 90.5156 4.85938C91.625 5.28125 92.6484 5.8125 93.5859 6.45312C94.5391 7.07813 95.3594 7.82813 96.0469 8.70312C96.7344 9.57812 97.2734 10.5781 97.6641 11.7031C98.0703 12.8125 98.2734 14.0625 98.2734 15.4531ZM87.8672 16.25C87.8672 15.2344 87.5547 14.4453 86.9297 13.8828C86.3203 13.3047 85.5234 13.0156 84.5391 13.0156C84.2109 13.0156 83.8672 13.0469 83.5078 13.1094C83.1641 13.1562 82.8359 13.2188 82.5234 13.2969L82.2422 20.1406C82.4609 20.1719 82.6719 20.1875 82.875 20.1875C83.0781 20.1875 83.2891 20.1875 83.5078 20.1875C84.0703 20.1875 84.6094 20.0938 85.125 19.9062C85.6562 19.7188 86.125 19.4531 86.5312 19.1094C86.9375 18.75 87.2578 18.3359 87.4922 17.8672C87.7422 17.3828 87.8672 16.8438 87.8672 16.25ZM128.531 21.4531C128.531 22.875 128.367 24.25 128.039 25.5781C127.711 26.8906 127.234 28.125 126.609 29.2812C126 30.4375 125.25 31.5 124.359 32.4688C123.484 33.4219 122.492 34.2422 121.383 34.9297C120.289 35.6172 119.094 36.1562 117.797 36.5469C116.5 36.9219 115.125 37.1094 113.672 37.1094C112.266 37.1094 110.922 36.9297 109.641 36.5703C108.375 36.2109 107.187 35.7109 106.078 35.0703C104.969 34.4141 103.961 33.6328 103.055 32.7266C102.164 31.8047 101.398 30.7891 100.758 29.6797C100.133 28.5547 99.6406 27.3516 99.2812 26.0703C98.9375 24.7891 98.7656 23.4531 98.7656 22.0625C98.7656 20.7031 98.9297 19.375 99.2578 18.0781C99.5859 16.7656 100.055 15.5312 100.664 14.375C101.289 13.2188 102.039 12.1562 102.914 11.1875C103.789 10.2188 104.766 9.38281 105.844 8.67969C106.937 7.97656 108.117 7.42969 109.383 7.03906C110.648 6.64844 111.984 6.45312 113.391 6.45312C115.656 6.45312 117.719 6.80469 119.578 7.50781C121.453 8.21094 123.047 9.21875 124.359 10.5312C125.687 11.8281 126.711 13.4063 127.43 15.2656C128.164 17.1094 128.531 19.1719 128.531 21.4531ZM118.125 22.0625C118.125 21.3906 118.023 20.7422 117.82 20.1172C117.633 19.4766 117.352 18.9141 116.977 18.4297C116.602 17.9297 116.133 17.5312 115.57 17.2344C115.023 16.9219 114.391 16.7656 113.672 16.7656C112.937 16.7656 112.281 16.8984 111.703 17.1641C111.125 17.4297 110.625 17.7969 110.203 18.2656C109.797 18.7188 109.484 19.2578 109.266 19.8828C109.047 20.4922 108.937 21.1406 108.937 21.8281C108.937 22.4844 109.031 23.1406 109.219 23.7969C109.406 24.4531 109.687 25.0469 110.062 25.5781C110.437 26.1094 110.898 26.5391 111.445 26.8672C112.008 27.1953 112.656 27.3594 113.391 27.3594C114.125 27.3594 114.781 27.2188 115.359 26.9375C115.953 26.6406 116.453 26.25 116.859 25.7656C117.266 25.2656 117.578 24.6953 117.797 24.0547C118.016 23.4141 118.125 22.75 118.125 22.0625Z" fill="white"/>
<path d="M39.4453 5.04688L41.4279 5.30997L41.6182 3.87643L40.3164 3.24656L39.4453 5.04688ZM38.1328 14.9375L37.6009 16.8655L39.8135 17.4758L40.1154 15.2006L38.1328 14.9375ZM32.1094 15.0781L32.655 17.0023L32.6683 16.9985L32.6814 16.9946L32.1094 15.0781ZM29.3203 16.4609L28.1009 14.8757L28.0934 14.8814L28.086 14.8872L29.3203 16.4609ZM27.3984 18.8047L25.6216 17.8866L25.6155 17.8984L25.6096 17.9103L27.3984 18.8047ZM27.0703 24.2188L25.227 24.9949L25.2356 25.0153L25.2447 25.0355L27.0703 24.2188ZM38.9766 24.6406L40.9694 24.8102L41.2952 20.9816L37.9723 22.911L38.9766 24.6406ZM38.0391 35.6562L38.9517 37.4359L39.9379 36.9302L40.0319 35.8258L38.0391 35.6562ZM36.0469 36.5L36.6793 38.3974L36.6916 38.3933L36.7039 38.389L36.0469 36.5ZM33.8672 37.1328L34.3139 39.0823L34.3331 39.0779L34.3523 39.0731L33.8672 37.1328ZM16.4297 29.0234L14.5796 29.7833L14.5838 29.7933L14.588 29.8033L16.4297 29.0234ZM16.5 15.8281L18.4023 16.4454L18.4035 16.4418L16.5 15.8281ZM25.3828 5.375L24.5349 3.56361L24.53 3.56595L25.3828 5.375ZM36.2812 4.08594L35.9792 6.063L35.9832 6.06361L36.2812 4.08594ZM37.4627 4.78378L36.1502 14.6744L40.1154 15.2006L41.4279 5.30997L37.4627 4.78378ZM38.6647 13.0095C38.1081 12.856 37.546 12.7489 36.9792 12.6903L36.5676 16.6691C36.9071 16.7042 37.2512 16.769 37.6009 16.8655L38.6647 13.0095ZM36.9792 12.6903C36.4581 12.6364 35.9363 12.6094 35.4141 12.6094V16.6094C35.7981 16.6094 36.1825 16.6292 36.5676 16.6691L36.9792 12.6903ZM35.4141 12.6094C34.0754 12.6094 32.7803 12.7906 31.5373 13.1617L32.6814 16.9946C33.5321 16.7406 34.4402 16.6094 35.4141 16.6094V12.6094ZM31.5637 13.154C30.288 13.5158 29.1266 14.0867 28.1009 14.8757L30.5397 18.0462C31.139 17.5852 31.837 17.2342 32.655 17.0023L31.5637 13.154ZM28.086 14.8872C27.0538 15.6968 26.232 16.7052 25.6216 17.8866L29.1753 19.7227C29.5336 19.0292 29.993 18.4751 30.5546 18.0346L28.086 14.8872ZM25.6096 17.9103C24.9761 19.1773 24.6953 20.5969 24.6953 22.1094H28.6953C28.6953 21.0906 28.8833 20.3071 29.1873 19.6991L25.6096 17.9103ZM24.6953 22.1094C24.6953 23.1213 24.8504 24.1003 25.227 24.9949L28.9136 23.4426C28.7902 23.1497 28.6953 22.7224 28.6953 22.1094H24.6953ZM25.2447 25.0355C25.6264 25.8888 26.1732 26.6332 26.8915 27.2318L29.4522 24.1589C29.233 23.9762 29.0455 23.7362 28.8959 23.402L25.2447 25.0355ZM26.8915 27.2318C27.5901 27.8139 28.3952 28.2247 29.2741 28.482L30.3977 24.643C29.9954 24.5253 29.6912 24.358 29.4522 24.1589L26.8915 27.2318ZM29.2741 28.482C30.1217 28.7301 31.0169 28.8438 31.9453 28.8438V24.8438C31.3425 24.8438 30.8314 24.7699 30.3977 24.643L29.2741 28.482ZM31.9453 28.8438C32.6678 28.8438 33.4011 28.7656 34.1422 28.6174L33.3578 24.6951C32.8489 24.7969 32.3791 24.8438 31.9453 24.8438V28.8438ZM34.1422 28.6174C34.8492 28.476 35.5466 28.2906 36.234 28.0614L34.9691 24.2667C34.4378 24.4438 33.9008 24.5865 33.3578 24.6951L34.1422 28.6174ZM36.234 28.0614C36.9116 27.8356 37.573 27.5745 38.2178 27.2783L36.5478 23.6436C36.0363 23.8786 35.5102 24.0863 34.9691 24.2667L36.234 28.0614ZM38.2178 27.2783C38.8461 26.9896 39.4347 26.6873 39.9808 26.3702L37.9723 22.911C37.5497 23.1564 37.0757 23.401 36.5478 23.6436L38.2178 27.2783ZM36.9838 24.471L36.0463 35.4867L40.0319 35.8258L40.9694 24.8102L36.9838 24.471ZM37.1264 33.8766C36.6081 34.1424 36.0305 34.3882 35.3898 34.611L36.7039 38.389C37.5008 38.1118 38.2513 37.7951 38.9517 37.4359L37.1264 33.8766ZM35.4144 34.6026C34.7619 34.8201 34.0846 35.0169 33.3821 35.1925L34.3523 39.0731C35.1498 38.8737 35.9256 38.6486 36.6793 38.3974L35.4144 34.6026ZM33.4204 35.1833C32.7348 35.3405 32.0511 35.4614 31.3691 35.5467L31.8652 39.5158C32.6832 39.4136 33.4995 39.2689 34.3139 39.0823L33.4204 35.1833ZM31.3691 35.5467C30.6934 35.6312 30.0578 35.6719 29.4609 35.6719V39.6719C30.239 39.6719 31.041 39.6188 31.8652 39.5158L31.3691 35.5467ZM29.4609 35.6719C27.7297 35.6719 26.1473 35.353 24.6921 34.7312L23.1204 38.4095C25.1027 39.2564 27.2234 39.6719 29.4609 39.6719V35.6719ZM24.6921 34.7312C23.2026 34.0947 21.929 33.2312 20.8525 32.1414L18.0068 34.9524C19.4616 36.4251 21.1724 37.5771 23.1204 38.4095L24.6921 34.7312ZM20.8525 32.1414C19.773 31.0485 18.9116 29.7556 18.2714 28.2436L14.588 29.8033C15.4165 31.76 16.5551 33.4828 18.0068 34.9524L20.8525 32.1414ZM18.2797 28.2636C17.6663 26.7702 17.3516 25.1473 17.3516 23.375H13.3516C13.3516 25.634 13.7555 27.7767 14.5796 29.7833L18.2797 28.2636ZM17.3516 23.375C17.3516 20.8966 17.7062 18.5906 18.4023 16.4454L14.5976 15.2108C13.7625 17.7844 13.3516 20.5097 13.3516 23.375H17.3516ZM18.4035 16.4418C19.0966 14.2917 20.1031 12.4441 21.4114 10.8741L18.3385 8.31338C16.6781 10.3059 15.4346 12.6145 14.5965 15.2145L18.4035 16.4418ZM21.4114 10.8741C22.7011 9.32648 24.3002 8.09648 26.2356 7.18405L24.53 3.56595C22.0904 4.71602 20.0176 6.29852 18.3385 8.31338L21.4114 10.8741ZM26.2307 7.18638C28.1258 6.2993 30.3592 5.82812 32.9766 5.82812V1.82812C29.8751 1.82812 27.046 2.3882 24.5349 3.56362L26.2307 7.18638ZM32.9766 5.82812C33.9481 5.82812 34.9486 5.90555 35.9792 6.063L36.5833 2.10888C35.3638 1.92257 34.1612 1.82812 32.9766 1.82812V5.82812ZM35.9832 6.06361C36.9393 6.20767 37.799 6.47211 38.5742 6.84719L40.3164 3.24656C39.1541 2.68414 37.9045 2.30796 36.5792 2.10826L35.9832 6.06361ZM70.4766 35.9844L70.7325 37.9679L73.047 37.6693L72.3975 35.4278L70.4766 35.9844ZM58.8516 37.4844L56.9185 37.9976L57.3685 39.6923L59.1075 39.4679L58.8516 37.4844ZM57.4453 32.1875L59.3783 31.6743L58.9836 30.1875H57.4453V32.1875ZM52.1016 32.1875V30.1875H50.4957L50.1488 31.7555L52.1016 32.1875ZM50.9297 37.4844L50.7345 39.4748L52.4994 39.6479L52.8825 37.9164L50.9297 37.4844ZM38.9766 36.3125L37.0603 35.7399L36.3652 38.0661L38.7814 38.303L38.9766 36.3125ZM48.3047 5.09375L48.2041 3.09628L46.7929 3.16735L46.3884 4.52117L48.3047 5.09375ZM61.3359 4.4375L63.2569 3.8809L62.8164 2.36041L61.2353 2.44003L61.3359 4.4375ZM56.6016 25.0156V27.0156H59.0855L58.5555 24.5889L56.6016 25.0156ZM54.8203 16.8594L56.7743 16.4327L52.864 16.4434L54.8203 16.8594ZM53.0859 25.0156L51.1297 24.5996L50.6159 27.0156H53.0859V25.0156ZM70.2206 34.0008L58.5956 35.5008L59.1075 39.4679L70.7325 37.9679L70.2206 34.0008ZM60.7846 36.9712L59.3783 31.6743L55.5123 32.7007L56.9185 37.9976L60.7846 36.9712ZM57.4453 30.1875H52.1016V34.1875H57.4453V30.1875ZM50.1488 31.7555L48.9769 37.0523L52.8825 37.9164L54.0543 32.6195L50.1488 31.7555ZM51.1248 35.4939L39.1717 34.322L38.7814 38.303L50.7345 39.4748L51.1248 35.4939ZM40.8928 36.8851L50.221 5.66633L46.3884 4.52117L37.0603 35.7399L40.8928 36.8851ZM48.4053 7.09122L61.4365 6.43497L61.2353 2.44003L48.2041 3.09628L48.4053 7.09122ZM59.4149 4.9941L68.5556 36.541L72.3975 35.4278L63.2569 3.8809L59.4149 4.9941ZM58.5555 24.5889L56.7743 16.4327L52.8664 17.2861L54.6476 25.4423L58.5555 24.5889ZM52.864 16.4434L51.1297 24.5996L55.0422 25.4316L56.7766 17.2754L52.864 16.4434ZM53.0859 27.0156H56.6016V23.0156H53.0859V27.0156ZM95.7187 22.5547L94.2401 21.208L94.2334 21.2153L94.2269 21.2227L95.7187 22.5547ZM89.5312 26.2812L90.1264 28.1907L90.134 28.1883L90.1417 28.1858L89.5312 26.2812ZM85.7812 27.125L86.044 29.1077L86.0557 29.1061L86.0674 29.1044L85.7812 27.125ZM81.9609 27.4062L81.9359 25.4064L79.9609 25.4311V27.4062H81.9609ZM81.9609 38.3281V40.3281H83.9609V38.3281H81.9609ZM71.0391 38.3281H69.0391V40.3281H71.0391V38.3281ZM71.1328 16.9062L69.1331 16.8735L69.1329 16.8812L69.1329 16.8889L71.1328 16.9062ZM71.2734 5.42188L70.7042 3.50458L69.3443 3.9083L69.2758 5.32521L71.2734 5.42188ZM87.0703 3.94531L86.7374 5.9174L86.7498 5.91951L86.7623 5.92146L87.0703 3.94531ZM90.5156 4.85938L89.7959 6.7254L89.8047 6.72877L90.5156 4.85938ZM93.5859 6.45312L92.4575 8.10441L92.4733 8.11516L92.4892 8.12561L93.5859 6.45312ZM97.6641 11.7031L95.7747 12.3591L95.7802 12.3751L95.786 12.3909L97.6641 11.7031ZM86.9297 13.8828L85.5532 15.3337L85.5722 15.3518L85.5918 15.3694L86.9297 13.8828ZM83.5078 13.1094L83.778 15.091L83.8144 15.0861L83.8505 15.0798L83.5078 13.1094ZM82.5234 13.2969L82.0384 11.3566L80.5866 11.7195L80.5251 13.2148L82.5234 13.2969ZM82.2422 20.1406L80.2439 20.0585L80.1696 21.8649L81.9593 22.1205L82.2422 20.1406ZM85.125 19.9062L84.4594 18.0203L84.4504 18.0234L84.4415 18.0267L85.125 19.9062ZM86.5312 19.1094L87.8231 20.6361L87.8399 20.6219L87.8564 20.6074L86.5312 19.1094ZM87.4922 17.8672L85.7149 16.9499L85.7091 16.9613L85.7033 16.9728L87.4922 17.8672ZM96.2734 15.4531C96.2734 16.7716 96.0762 17.8634 95.7283 18.7631L99.4591 20.2057C100.018 18.7616 100.273 17.1659 100.273 15.4531H96.2734ZM95.7283 18.7631C95.3588 19.7188 94.8604 20.5268 94.2401 21.208L97.1974 23.9013C98.1708 22.8325 98.9224 21.5937 99.4591 20.2057L95.7283 18.7631ZM94.2269 21.2227C93.5948 21.9306 92.8427 22.539 91.9581 23.0463L93.9481 26.5162C95.1885 25.8048 96.2802 24.9288 97.2106 23.8867L94.2269 21.2227ZM91.9581 23.0463C91.0228 23.5827 90.0117 24.027 88.9208 24.3767L90.1417 28.1858C91.4882 27.7542 92.7584 27.1985 93.9481 26.5162L91.9581 23.0463ZM88.9361 24.3718C87.8379 24.7142 86.6914 24.9726 85.4951 25.1456L86.0674 29.1044C87.4648 28.9024 88.8184 28.5983 90.1264 28.1907L88.9361 24.3718ZM85.5185 25.1423C84.2968 25.3042 83.1028 25.3918 81.9359 25.4064L81.9859 29.4061C83.319 29.3894 84.6719 29.2895 86.044 29.1077L85.5185 25.1423ZM79.9609 27.4062V38.3281H83.9609V27.4062H79.9609ZM81.9609 36.3281H71.0391V40.3281H81.9609V36.3281ZM73.0391 38.3281C73.0391 34.7529 73.0469 31.1933 73.0625 27.6494L69.0625 27.6318C69.0469 31.1817 69.0391 34.7471 69.0391 38.3281H73.0391ZM73.0625 27.6494C73.0781 24.1054 73.1015 20.5302 73.1327 16.9236L69.1329 16.8889C69.1016 20.5011 69.0781 24.0821 69.0625 27.6318L73.0625 27.6494ZM73.1325 16.939C73.1641 15.0164 73.1719 13.0938 73.1562 11.1711L69.1563 11.2039C69.1718 13.0937 69.1641 14.9836 69.1331 16.8735L73.1325 16.939ZM73.1562 11.1711C73.1409 9.30321 73.1791 7.41904 73.2711 5.51854L69.2758 5.32521C69.1802 7.29971 69.1404 9.25929 69.1563 11.2039L73.1562 11.1711ZM71.8426 7.33917C73.7552 6.77138 75.6632 6.34688 77.5671 6.06426L76.9798 2.10761C74.8837 2.41875 72.7917 2.88487 70.7042 3.50458L71.8426 7.33917ZM77.5671 6.06426C79.4651 5.78253 81.4292 5.64062 83.4609 5.64062V1.64062C81.2426 1.64062 79.0818 1.7956 76.9798 2.10761L77.5671 6.06426ZM83.4609 5.64062C84.5509 5.64062 85.6427 5.73259 86.7374 5.9174L87.4033 1.97322C86.0917 1.75179 84.7772 1.64062 83.4609 1.64062V5.64062ZM86.7623 5.92146C87.8301 6.08787 88.8401 6.35673 89.7959 6.72538L91.2354 2.99337C90.0036 2.51827 88.7167 2.17776 87.3783 1.96917L86.7623 5.92146ZM89.8047 6.72877C90.7735 7.09717 91.6559 7.55661 92.4575 8.10441L94.7143 4.80184C93.641 4.06839 92.4765 3.46533 91.2265 2.98998L89.8047 6.72877ZM92.4892 8.12561C93.2655 8.63467 93.9239 9.23835 94.4742 9.93877L97.6195 7.46748C96.7948 6.4179 95.8126 5.52158 94.6826 4.78064L92.4892 8.12561ZM94.4742 9.93877C95.0154 10.6276 95.4517 11.4288 95.7747 12.3591L99.5534 11.0471C99.0952 9.72742 98.4533 8.52866 97.6195 7.46748L94.4742 9.93877ZM95.786 12.3909C96.0987 13.2447 96.2734 14.2565 96.2734 15.4531H100.273C100.273 13.8685 100.042 12.3803 99.5421 11.0154L95.786 12.3909ZM89.8672 16.25C89.8672 14.7954 89.4007 13.416 88.2676 12.3962L85.5918 15.3694C85.7087 15.4747 85.8672 15.6733 85.8672 16.25H89.8672ZM88.3062 12.4319C87.2621 11.4413 85.9415 11.0156 84.5391 11.0156V15.0156C85.1054 15.0156 85.3785 15.168 85.5532 15.3337L88.3062 12.4319ZM84.5391 11.0156C84.0842 11.0156 83.6253 11.0589 83.1651 11.139L83.8505 15.0798C84.1091 15.0348 84.3377 15.0156 84.5391 15.0156V11.0156ZM83.2376 11.1277C82.827 11.1837 82.4268 11.2595 82.0384 11.3566L83.0085 15.2372C83.245 15.178 83.5011 15.1288 83.778 15.091L83.2376 11.1277ZM80.5251 13.2148L80.2439 20.0585L84.2405 20.2227L84.5217 13.379L80.5251 13.2148ZM81.9593 22.1205C82.2637 22.164 82.5694 22.1875 82.875 22.1875V18.1875C82.7743 18.1875 82.6582 18.1797 82.525 18.1607L81.9593 22.1205ZM82.875 22.1875C82.8754 22.1875 82.8758 22.1875 82.8762 22.1875C82.8766 22.1875 82.877 22.1875 82.8774 22.1875C82.8778 22.1875 82.8782 22.1875 82.8786 22.1875C82.879 22.1875 82.8794 22.1875 82.8798 22.1875C82.8802 22.1875 82.8805 22.1875 82.8809 22.1875C82.8813 22.1875 82.8817 22.1875 82.8821 22.1875C82.8825 22.1875 82.8829 22.1875 82.8833 22.1875C82.8837 22.1875 82.8841 22.1875 82.8845 22.1875C82.8849 22.1875 82.8853 22.1875 82.8857 22.1875C82.8861 22.1875 82.8865 22.1875 82.8869 22.1875C82.8873 22.1875 82.8877 22.1875 82.8881 22.1875C82.8885 22.1875 82.8889 22.1875 82.8893 22.1875C82.8897 22.1875 82.8901 22.1875 82.8905 22.1875C82.8909 22.1875 82.8913 22.1875 82.8917 22.1875C82.8921 22.1875 82.8925 22.1875 82.8929 22.1875C82.8933 22.1875 82.8937 22.1875 82.8941 22.1875C82.8945 22.1875 82.8949 22.1875 82.8953 22.1875C82.8956 22.1875 82.896 22.1875 82.8964 22.1875C82.8968 22.1875 82.8972 22.1875 82.8976 22.1875C82.898 22.1875 82.8984 22.1875 82.8988 22.1875C82.8992 22.1875 82.8996 22.1875 82.9 22.1875C82.9004 22.1875 82.9008 22.1875 82.9012 22.1875C82.9016 22.1875 82.902 22.1875 82.9024 22.1875C82.9028 22.1875 82.9032 22.1875 82.9036 22.1875C82.904 22.1875 82.9044 22.1875 82.9048 22.1875C82.9052 22.1875 82.9056 22.1875 82.906 22.1875C82.9064 22.1875 82.9068 22.1875 82.9072 22.1875C82.9076 22.1875 82.908 22.1875 82.9084 22.1875C82.9088 22.1875 82.9092 22.1875 82.9096 22.1875C82.91 22.1875 82.9104 22.1875 82.9108 22.1875C82.9112 22.1875 82.9116 22.1875 82.912 22.1875C82.9124 22.1875 82.9128 22.1875 82.9132 22.1875C82.9136 22.1875 82.914 22.1875 82.9144 22.1875C82.9148 22.1875 82.9152 22.1875 82.9156 22.1875C82.916 22.1875 82.9164 22.1875 82.9168 22.1875C82.9172 22.1875 82.9176 22.1875 82.918 22.1875C82.9184 22.1875 82.9188 22.1875 82.9192 22.1875C82.9196 22.1875 82.9199 22.1875 82.9203 22.1875C82.9207 22.1875 82.9211 22.1875 82.9215 22.1875C82.9219 22.1875 82.9223 22.1875 82.9227 22.1875C82.9231 22.1875 82.9235 22.1875 82.9239 22.1875C82.9243 22.1875 82.9247 22.1875 82.9251 22.1875C82.9255 22.1875 82.9259 22.1875 82.9263 22.1875C82.9267 22.1875 82.9271 22.1875 82.9275 22.1875C82.9279 22.1875 82.9283 22.1875 82.9287 22.1875C82.9291 22.1875 82.9295 22.1875 82.9299 22.1875C82.9303 22.1875 82.9307 22.1875 82.9311 22.1875C82.9315 22.1875 82.9319 22.1875 82.9323 22.1875C82.9327 22.1875 82.9331 22.1875 82.9335 22.1875C82.9339 22.1875 82.9343 22.1875 82.9347 22.1875C82.9351 22.1875 82.9355 22.1875 82.9359 22.1875C82.9363 22.1875 82.9367 22.1875 82.9371 22.1875C82.9375 22.1875 82.9379 22.1875 82.9383 22.1875C82.9387 22.1875 82.9391 22.1875 82.9395 22.1875C82.9399 22.1875 82.9403 22.1875 82.9407 22.1875C82.9411 22.1875 82.9415 22.1875 82.9419 22.1875C82.9423 22.1875 82.9427 22.1875 82.9431 22.1875C82.9435 22.1875 82.9439 22.1875 82.9443 22.1875C82.9447 22.1875 82.9451 22.1875 82.9455 22.1875C82.9459 22.1875 82.9463 22.1875 82.9467 22.1875C82.9471 22.1875 82.9475 22.1875 82.9479 22.1875C82.9483 22.1875 82.9487 22.1875 82.9491 22.1875C82.9495 22.1875 82.9499 22.1875 82.9503 22.1875C82.9507 22.1875 82.9511 22.1875 82.9515 22.1875C82.9519 22.1875 82.9523 22.1875 82.9527 22.1875C82.9531 22.1875 82.9535 22.1875 82.9539 22.1875C82.9543 22.1875 82.9547 22.1875 82.9551 22.1875C82.9555 22.1875 82.9559 22.1875 82.9563 22.1875C82.9567 22.1875 82.9571 22.1875 82.9575 22.1875C82.9579 22.1875 82.9583 22.1875 82.9587 22.1875C82.9591 22.1875 82.9595 22.1875 82.9599 22.1875C82.9603 22.1875 82.9607 22.1875 82.9611 22.1875C82.9616 22.1875 82.962 22.1875 82.9624 22.1875C82.9628 22.1875 82.9632 22.1875 82.9636 22.1875C82.964 22.1875 82.9644 22.1875 82.9648 22.1875C82.9652 22.1875 82.9656 22.1875 82.966 22.1875C82.9664 22.1875 82.9668 22.1875 82.9672 22.1875C82.9676 22.1875 82.968 22.1875 82.9684 22.1875C82.9688 22.1875 82.9692 22.1875 82.9696 22.1875C82.97 22.1875 82.9704 22.1875 82.9708 22.1875C82.9712 22.1875 82.9716 22.1875 82.972 22.1875C82.9724 22.1875 82.9728 22.1875 82.9732 22.1875C82.9736 22.1875 82.974 22.1875 82.9744 22.1875C82.9748 22.1875 82.9752 22.1875 82.9756 22.1875C82.976 22.1875 82.9764 22.1875 82.9768 22.1875C82.9772 22.1875 82.9776 22.1875 82.978 22.1875C82.9784 22.1875 82.9788 22.1875 82.9792 22.1875C82.9796 22.1875 82.98 22.1875 82.9804 22.1875C82.9808 22.1875 82.9812 22.1875 82.9816 22.1875C82.982 22.1875 82.9824 22.1875 82.9828 22.1875C82.9832 22.1875 82.9836 22.1875 82.984 22.1875C82.9844 22.1875 82.9848 22.1875 82.9852 22.1875C82.9856 22.1875 82.9861 22.1875 82.9865 22.1875C82.9869 22.1875 82.9873 22.1875 82.9877 22.1875C82.9881 22.1875 82.9885 22.1875 82.9889 22.1875C82.9893 22.1875 82.9897 22.1875 82.9901 22.1875C82.9905 22.1875 82.9909 22.1875 82.9913 22.1875C82.9917 22.1875 82.9921 22.1875 82.9925 22.1875C82.9929 22.1875 82.9933 22.1875 82.9937 22.1875C82.9941 22.1875 82.9945 22.1875 82.9949 22.1875C82.9953 22.1875 82.9957 22.1875 82.9961 22.1875C82.9965 22.1875 82.9969 22.1875 82.9973 22.1875C82.9977 22.1875 82.9981 22.1875 82.9985 22.1875C82.9989 22.1875 82.9993 22.1875 82.9997 22.1875C83.0001 22.1875 83.0005 22.1875 83.0009 22.1875C83.0014 22.1875 83.0018 22.1875 83.0022 22.1875C83.0026 22.1875 83.003 22.1875 83.0034 22.1875C83.0038 22.1875 83.0042 22.1875 83.0046 22.1875C83.005 22.1875 83.0054 22.1875 83.0058 22.1875C83.0062 22.1875 83.0066 22.1875 83.007 22.1875C83.0074 22.1875 83.0078 22.1875 83.0082 22.1875C83.0086 22.1875 83.009 22.1875 83.0094 22.1875C83.0098 22.1875 83.0102 22.1875 83.0106 22.1875C83.011 22.1875 83.0114 22.1875 83.0118 22.1875C83.0122 22.1875 83.0126 22.1875 83.013 22.1875C83.0134 22.1875 83.0139 22.1875 83.0143 22.1875C83.0147 22.1875 83.0151 22.1875 83.0155 22.1875C83.0159 22.1875 83.0163 22.1875 83.0167 22.1875C83.0171 22.1875 83.0175 22.1875 83.0179 22.1875C83.0183 22.1875 83.0187 22.1875 83.0191 22.1875C83.0195 22.1875 83.0199 22.1875 83.0203 22.1875C83.0207 22.1875 83.0211 22.1875 83.0215 22.1875C83.0219 22.1875 83.0223 22.1875 83.0227 22.1875C83.0231 22.1875 83.0235 22.1875 83.024 22.1875C83.0244 22.1875 83.0248 22.1875 83.0252 22.1875C83.0256 22.1875 83.026 22.1875 83.0264 22.1875C83.0268 22.1875 83.0272 22.1875 83.0276 22.1875C83.028 22.1875 83.0284 22.1875 83.0288 22.1875C83.0292 22.1875 83.0296 22.1875 83.03 22.1875C83.0304 22.1875 83.0308 22.1875 83.0312 22.1875C83.0316 22.1875 83.032 22.1875 83.0324 22.1875C83.0328 22.1875 83.0333 22.1875 83.0337 22.1875C83.0341 22.1875 83.0345 22.1875 83.0349 22.1875C83.0353 22.1875 83.0357 22.1875 83.0361 22.1875C83.0365 22.1875 83.0369 22.1875 83.0373 22.1875C83.0377 22.1875 83.0381 22.1875 83.0385 22.1875C83.0389 22.1875 83.0393 22.1875 83.0397 22.1875C83.0401 22.1875 83.0405 22.1875 83.0409 22.1875C83.0413 22.1875 83.0418 22.1875 83.0422 22.1875C83.0426 22.1875 83.043 22.1875 83.0434 22.1875C83.0438 22.1875 83.0442 22.1875 83.0446 22.1875C83.045 22.1875 83.0454 22.1875 83.0458 22.1875C83.0462 22.1875 83.0466 22.1875 83.047 22.1875C83.0474 22.1875 83.0478 22.1875 83.0482 22.1875C83.0486 22.1875 83.049 22.1875 83.0494 22.1875C83.0499 22.1875 83.0503 22.1875 83.0507 22.1875C83.0511 22.1875 83.0515 22.1875 83.0519 22.1875C83.0523 22.1875 83.0527 22.1875 83.0531 22.1875C83.0535 22.1875 83.0539 22.1875 83.0543 22.1875C83.0547 22.1875 83.0551 22.1875 83.0555 22.1875C83.0559 22.1875 83.0563 22.1875 83.0567 22.1875C83.0572 22.1875 83.0576 22.1875 83.058 22.1875C83.0584 22.1875 83.0588 22.1875 83.0592 22.1875C83.0596 22.1875 83.06 22.1875 83.0604 22.1875C83.0608 22.1875 83.0612 22.1875 83.0616 22.1875C83.062 22.1875 83.0624 22.1875 83.0628 22.1875C83.0632 22.1875 83.0636 22.1875 83.0641 22.1875C83.0645 22.1875 83.0649 22.1875 83.0653 22.1875C83.0657 22.1875 83.0661 22.1875 83.0665 22.1875C83.0669 22.1875 83.0673 22.1875 83.0677 22.1875C83.0681 22.1875 83.0685 22.1875 83.0689 22.1875C83.0693 22.1875 83.0697 22.1875 83.0701 22.1875C83.0706 22.1875 83.071 22.1875 83.0714 22.1875C83.0718 22.1875 83.0722 22.1875 83.0726 22.1875C83.073 22.1875 83.0734 22.1875 83.0738 22.1875C83.0742 22.1875 83.0746 22.1875 83.075 22.1875C83.0754 22.1875 83.0758 22.1875 83.0762 22.1875C83.0767 22.1875 83.0771 22.1875 83.0775 22.1875C83.0779 22.1875 83.0783 22.1875 83.0787 22.1875C83.0791 22.1875 83.0795 22.1875 83.0799 22.1875C83.0803 22.1875 83.0807 22.1875 83.0811 22.1875C83.0815 22.1875 83.0819 22.1875 83.0823 22.1875C83.0828 22.1875 83.0832 22.1875 83.0836 22.1875C83.084 22.1875 83.0844 22.1875 83.0848 22.1875C83.0852 22.1875 83.0856 22.1875 83.086 22.1875C83.0864 22.1875 83.0868 22.1875 83.0872 22.1875C83.0876 22.1875 83.088 22.1875 83.0885 22.1875C83.0889 22.1875 83.0893 22.1875 83.0897 22.1875C83.0901 22.1875 83.0905 22.1875 83.0909 22.1875C83.0913 22.1875 83.0917 22.1875 83.0921 22.1875C83.0925 22.1875 83.0929 22.1875 83.0933 22.1875C83.0938 22.1875 83.0942 22.1875 83.0946 22.1875C83.095 22.1875 83.0954 22.1875 83.0958 22.1875C83.0962 22.1875 83.0966 22.1875 83.097 22.1875C83.0974 22.1875 83.0978 22.1875 83.0982 22.1875C83.0986 22.1875 83.0991 22.1875 83.0995 22.1875C83.0999 22.1875 83.1003 22.1875 83.1007 22.1875C83.1011 22.1875 83.1015 22.1875 83.1019 22.1875C83.1023 22.1875 83.1027 22.1875 83.1031 22.1875C83.1035 22.1875 83.1039 22.1875 83.1044 22.1875C83.1048 22.1875 83.1052 22.1875 83.1056 22.1875C83.106 22.1875 83.1064 22.1875 83.1068 22.1875C83.1072 22.1875 83.1076 22.1875 83.108 22.1875C83.1084 22.1875 83.1088 22.1875 83.1093 22.1875C83.1097 22.1875 83.1101 22.1875 83.1105 22.1875C83.1109 22.1875 83.1113 22.1875 83.1117 22.1875C83.1121 22.1875 83.1125 22.1875 83.1129 22.1875C83.1133 22.1875 83.1137 22.1875 83.1142 22.1875C83.1146 22.1875 83.115 22.1875 83.1154 22.1875C83.1158 22.1875 83.1162 22.1875 83.1166 22.1875C83.117 22.1875 83.1174 22.1875 83.1178 22.1875C83.1182 22.1875 83.1186 22.1875 83.1191 22.1875C83.1195 22.1875 83.1199 22.1875 83.1203 22.1875C83.1207 22.1875 83.1211 22.1875 83.1215 22.1875C83.1219 22.1875 83.1223 22.1875 83.1227 22.1875C83.1231 22.1875 83.1236 22.1875 83.124 22.1875C83.1244 22.1875 83.1248 22.1875 83.1252 22.1875C83.1256 22.1875 83.126 22.1875 83.1264 22.1875C83.1268 22.1875 83.1272 22.1875 83.1276 22.1875C83.1281 22.1875 83.1285 22.1875 83.1289 22.1875C83.1293 22.1875 83.1297 22.1875 83.1301 22.1875C83.1305 22.1875 83.1309 22.1875 83.1313 22.1875C83.1317 22.1875 83.1321 22.1875 83.1326 22.1875C83.133 22.1875 83.1334 22.1875 83.1338 22.1875C83.1342 22.1875 83.1346 22.1875 83.135 22.1875C83.1354 22.1875 83.1358 22.1875 83.1362 22.1875C83.1367 22.1875 83.1371 22.1875 83.1375 22.1875C83.1379 22.1875 83.1383 22.1875 83.1387 22.1875C83.1391 22.1875 83.1395 22.1875 83.1399 22.1875C83.1403 22.1875 83.1408 22.1875 83.1412 22.1875C83.1416 22.1875 83.142 22.1875 83.1424 22.1875C83.1428 22.1875 83.1432 22.1875 83.1436 22.1875C83.144 22.1875 83.1444 22.1875 83.1448 22.1875C83.1453 22.1875 83.1457 22.1875 83.1461 22.1875C83.1465 22.1875 83.1469 22.1875 83.1473 22.1875C83.1477 22.1875 83.1481 22.1875 83.1485 22.1875C83.149 22.1875 83.1494 22.1875 83.1498 22.1875C83.1502 22.1875 83.1506 22.1875 83.151 22.1875C83.1514 22.1875 83.1518 22.1875 83.1522 22.1875C83.1526 22.1875 83.1531 22.1875 83.1535 22.1875C83.1539 22.1875 83.1543 22.1875 83.1547 22.1875C83.1551 22.1875 83.1555 22.1875 83.1559 22.1875C83.1563 22.1875 83.1567 22.1875 83.1572 22.1875C83.1576 22.1875 83.158 22.1875 83.1584 22.1875C83.1588 22.1875 83.1592 22.1875 83.1596 22.1875C83.16 22.1875 83.1604 22.1875 83.1609 22.1875C83.1613 22.1875 83.1617 22.1875 83.1621 22.1875C83.1625 22.1875 83.1629 22.1875 83.1633 22.1875C83.1637 22.1875 83.1641 22.1875 83.1646 22.1875C83.165 22.1875 83.1654 22.1875 83.1658 22.1875C83.1662 22.1875 83.1666 22.1875 83.167 22.1875C83.1674 22.1875 83.1678 22.1875 83.1683 22.1875C83.1687 22.1875 83.1691 22.1875 83.1695 22.1875C83.1699 22.1875 83.1703 22.1875 83.1707 22.1875C83.1711 22.1875 83.1715 22.1875 83.172 22.1875C83.1724 22.1875 83.1728 22.1875 83.1732 22.1875C83.1736 22.1875 83.174 22.1875 83.1744 22.1875C83.1748 22.1875 83.1752 22.1875 83.1757 22.1875C83.1761 22.1875 83.1765 22.1875 83.1769 22.1875C83.1773 22.1875 83.1777 22.1875 83.1781 22.1875C83.1785 22.1875 83.1789 22.1875 83.1794 22.1875C83.1798 22.1875 83.1802 22.1875 83.1806 22.1875C83.181 22.1875 83.1814 22.1875 83.1818 22.1875C83.1822 22.1875 83.1827 22.1875 83.1831 22.1875C83.1835 22.1875 83.1839 22.1875 83.1843 22.1875C83.1847 22.1875 83.1851 22.1875 83.1855 22.1875C83.186 22.1875 83.1864 22.1875 83.1868 22.1875C83.1872 22.1875 83.1876 22.1875 83.188 22.1875C83.1884 22.1875 83.1888 22.1875 83.1892 22.1875C83.1897 22.1875 83.1901 22.1875 83.1905 22.1875C83.1909 22.1875 83.1913 22.1875 83.1917 22.1875C83.1921 22.1875 83.1925 22.1875 83.193 22.1875C83.1934 22.1875 83.1938 22.1875 83.1942 22.1875C83.1946 22.1875 83.195 22.1875 83.1954 22.1875C83.1958 22.1875 83.1963 22.1875 83.1967 22.1875C83.1971 22.1875 83.1975 22.1875 83.1979 22.1875C83.1983 22.1875 83.1987 22.1875 83.1991 22.1875C83.1996 22.1875 83.2 22.1875 83.2004 22.1875C83.2008 22.1875 83.2012 22.1875 83.2016 22.1875C83.202 22.1875 83.2024 22.1875 83.2029 22.1875C83.2033 22.1875 83.2037 22.1875 83.2041 22.1875C83.2045 22.1875 83.2049 22.1875 83.2053 22.1875C83.2058 22.1875 83.2062 22.1875 83.2066 22.1875C83.207 22.1875 83.2074 22.1875 83.2078 22.1875C83.2082 22.1875 83.2086 22.1875 83.2091 22.1875C83.2095 22.1875 83.2099 22.1875 83.2103 22.1875C83.2107 22.1875 83.2111 22.1875 83.2115 22.1875C83.2119 22.1875 83.2124 22.1875 83.2128 22.1875C83.2132 22.1875 83.2136 22.1875 83.214 22.1875C83.2144 22.1875 83.2148 22.1875 83.2153 22.1875C83.2157 22.1875 83.2161 22.1875 83.2165 22.1875C83.2169 22.1875 83.2173 22.1875 83.2177 22.1875C83.2181 22.1875 83.2186 22.1875 83.219 22.1875C83.2194 22.1875 83.2198 22.1875 83.2202 22.1875C83.2206 22.1875 83.221 22.1875 83.2215 22.1875C83.2219 22.1875 83.2223 22.1875 83.2227 22.1875C83.2231 22.1875 83.2235 22.1875 83.2239 22.1875C83.2244 22.1875 83.2248 22.1875 83.2252 22.1875C83.2256 22.1875 83.226 22.1875 83.2264 22.1875C83.2268 22.1875 83.2273 22.1875 83.2277 22.1875C83.2281 22.1875 83.2285 22.1875 83.2289 22.1875C83.2293 22.1875 83.2297 22.1875 83.2301 22.1875C83.2306 22.1875 83.231 22.1875 83.2314 22.1875C83.2318 22.1875 83.2322 22.1875 83.2326 22.1875C83.233 22.1875 83.2335 22.1875 83.2339 22.1875C83.2343 22.1875 83.2347 22.1875 83.2351 22.1875C83.2355 22.1875 83.2359 22.1875 83.2364 22.1875C83.2368 22.1875 83.2372 22.1875 83.2376 22.1875C83.238 22.1875 83.2384 22.1875 83.2389 22.1875C83.2393 22.1875 83.2397 22.1875 83.2401 22.1875C83.2405 22.1875 83.2409 22.1875 83.2413 22.1875C83.2418 22.1875 83.2422 22.1875 83.2426 22.1875C83.243 22.1875 83.2434 22.1875 83.2438 22.1875C83.2442 22.1875 83.2447 22.1875 83.2451 22.1875C83.2455 22.1875 83.2459 22.1875 83.2463 22.1875C83.2467 22.1875 83.2471 22.1875 83.2476 22.1875C83.248 22.1875 83.2484 22.1875 83.2488 22.1875C83.2492 22.1875 83.2496 22.1875 83.2501 22.1875C83.2505 22.1875 83.2509 22.1875 83.2513 22.1875C83.2517 22.1875 83.2521 22.1875 83.2525 22.1875C83.253 22.1875 83.2534 22.1875 83.2538 22.1875C83.2542 22.1875 83.2546 22.1875 83.255 22.1875C83.2554 22.1875 83.2559 22.1875 83.2563 22.1875C83.2567 22.1875 83.2571 22.1875 83.2575 22.1875C83.2579 22.1875 83.2584 22.1875 83.2588 22.1875C83.2592 22.1875 83.2596 22.1875 83.26 22.1875C83.2604 22.1875 83.2608 22.1875 83.2613 22.1875C83.2617 22.1875 83.2621 22.1875 83.2625 22.1875C83.2629 22.1875 83.2633 22.1875 83.2638 22.1875C83.2642 22.1875 83.2646 22.1875 83.265 22.1875C83.2654 22.1875 83.2658 22.1875 83.2663 22.1875C83.2667 22.1875 83.2671 22.1875 83.2675 22.1875C83.2679 22.1875 83.2683 22.1875 83.2688 22.1875C83.2692 22.1875 83.2696 22.1875 83.27 22.1875C83.2704 22.1875 83.2708 22.1875 83.2712 22.1875C83.2717 22.1875 83.2721 22.1875 83.2725 22.1875C83.2729 22.1875 83.2733 22.1875 83.2737 22.1875C83.2742 22.1875 83.2746 22.1875 83.275 22.1875C83.2754 22.1875 83.2758 22.1875 83.2762 22.1875C83.2767 22.1875 83.2771 22.1875 83.2775 22.1875C83.2779 22.1875 83.2783 22.1875 83.2787 22.1875C83.2792 22.1875 83.2796 22.1875 83.28 22.1875C83.2804 22.1875 83.2808 22.1875 83.2812 22.1875C83.2817 22.1875 83.2821 22.1875 83.2825 22.1875C83.2829 22.1875 83.2833 22.1875 83.2837 22.1875C83.2842 22.1875 83.2846 22.1875 83.285 22.1875C83.2854 22.1875 83.2858 22.1875 83.2862 22.1875C83.2867 22.1875 83.2871 22.1875 83.2875 22.1875C83.2879 22.1875 83.2883 22.1875 83.2887 22.1875C83.2892 22.1875 83.2896 22.1875 83.29 22.1875C83.2904 22.1875 83.2908 22.1875 83.2912 22.1875C83.2917 22.1875 83.2921 22.1875 83.2925 22.1875C83.2929 22.1875 83.2933 22.1875 83.2937 22.1875C83.2942 22.1875 83.2946 22.1875 83.295 22.1875C83.2954 22.1875 83.2958 22.1875 83.2962 22.1875C83.2967 22.1875 83.2971 22.1875 83.2975 22.1875C83.2979 22.1875 83.2983 22.1875 83.2988 22.1875C83.2992 22.1875 83.2996 22.1875 83.3 22.1875C83.3004 22.1875 83.3008 22.1875 83.3013 22.1875C83.3017 22.1875 83.3021 22.1875 83.3025 22.1875C83.3029 22.1875 83.3033 22.1875 83.3038 22.1875C83.3042 22.1875 83.3046 22.1875 83.305 22.1875C83.3054 22.1875 83.3059 22.1875 83.3063 22.1875C83.3067 22.1875 83.3071 22.1875 83.3075 22.1875C83.3079 22.1875 83.3084 22.1875 83.3088 22.1875C83.3092 22.1875 83.3096 22.1875 83.31 22.1875C83.3104 22.1875 83.3109 22.1875 83.3113 22.1875C83.3117 22.1875 83.3121 22.1875 83.3125 22.1875C83.313 22.1875 83.3134 22.1875 83.3138 22.1875C83.3142 22.1875 83.3146 22.1875 83.315 22.1875C83.3155 22.1875 83.3159 22.1875 83.3163 22.1875C83.3167 22.1875 83.3171 22.1875 83.3176 22.1875C83.318 22.1875 83.3184 22.1875 83.3188 22.1875C83.3192 22.1875 83.3196 22.1875 83.3201 22.1875C83.3205 22.1875 83.3209 22.1875 83.3213 22.1875C83.3217 22.1875 83.3222 22.1875 83.3226 22.1875C83.323 22.1875 83.3234 22.1875 83.3238 22.1875C83.3243 22.1875 83.3247 22.1875 83.3251 22.1875C83.3255 22.1875 83.3259 22.1875 83.3263 22.1875C83.3268 22.1875 83.3272 22.1875 83.3276 22.1875C83.328 22.1875 83.3284 22.1875 83.3289 22.1875C83.3293 22.1875 83.3297 22.1875 83.3301 22.1875C83.3305 22.1875 83.331 22.1875 83.3314 22.1875C83.3318 22.1875 83.3322 22.1875 83.3326 22.1875C83.333 22.1875 83.3335 22.1875 83.3339 22.1875C83.3343 22.1875 83.3347 22.1875 83.3351 22.1875C83.3356 22.1875 83.336 22.1875 83.3364 22.1875C83.3368 22.1875 83.3372 22.1875 83.3377 22.1875C83.3381 22.1875 83.3385 22.1875 83.3389 22.1875C83.3393 22.1875 83.3398 22.1875 83.3402 22.1875C83.3406 22.1875 83.341 22.1875 83.3414 22.1875C83.3419 22.1875 83.3423 22.1875 83.3427 22.1875C83.3431 22.1875 83.3435 22.1875 83.3439 22.1875C83.3444 22.1875 83.3448 22.1875 83.3452 22.1875C83.3456 22.1875 83.346 22.1875 83.3465 22.1875C83.3469 22.1875 83.3473 22.1875 83.3477 22.1875C83.3481 22.1875 83.3486 22.1875 83.349 22.1875C83.3494 22.1875 83.3498 22.1875 83.3502 22.1875C83.3507 22.1875 83.3511 22.1875 83.3515 22.1875C83.3519 22.1875 83.3523 22.1875 83.3528 22.1875C83.3532 22.1875 83.3536 22.1875 83.354 22.1875C83.3544 22.1875 83.3549 22.1875 83.3553 22.1875C83.3557 22.1875 83.3561 22.1875 83.3565 22.1875C83.357 22.1875 83.3574 22.1875 83.3578 22.1875C83.3582 22.1875 83.3586 22.1875 83.3591 22.1875C83.3595 22.1875 83.3599 22.1875 83.3603 22.1875C83.3607 22.1875 83.3612 22.1875 83.3616 22.1875C83.362 22.1875 83.3624 22.1875 83.3628 22.1875C83.3633 22.1875 83.3637 22.1875 83.3641 22.1875C83.3645 22.1875 83.365 22.1875 83.3654 22.1875C83.3658 22.1875 83.3662 22.1875 83.3666 22.1875C83.3671 22.1875 83.3675 22.1875 83.3679 22.1875C83.3683 22.1875 83.3687 22.1875 83.3692 22.1875C83.3696 22.1875 83.37 22.1875 83.3704 22.1875C83.3708 22.1875 83.3713 22.1875 83.3717 22.1875C83.3721 22.1875 83.3725 22.1875 83.3729 22.1875C83.3734 22.1875 83.3738 22.1875 83.3742 22.1875C83.3746 22.1875 83.3751 22.1875 83.3755 22.1875C83.3759 22.1875 83.3763 22.1875 83.3767 22.1875C83.3772 22.1875 83.3776 22.1875 83.378 22.1875C83.3784 22.1875 83.3788 22.1875 83.3793 22.1875C83.3797 22.1875 83.3801 22.1875 83.3805 22.1875C83.3809 22.1875 83.3814 22.1875 83.3818 22.1875C83.3822 22.1875 83.3826 22.1875 83.3831 22.1875C83.3835 22.1875 83.3839 22.1875 83.3843 22.1875C83.3847 22.1875 83.3852 22.1875 83.3856 22.1875C83.386 22.1875 83.3864 22.1875 83.3868 22.1875C83.3873 22.1875 83.3877 22.1875 83.3881 22.1875C83.3885 22.1875 83.389 22.1875 83.3894 22.1875C83.3898 22.1875 83.3902 22.1875 83.3906 22.1875C83.3911 22.1875 83.3915 22.1875 83.3919 22.1875C83.3923 22.1875 83.3928 22.1875 83.3932 22.1875C83.3936 22.1875 83.394 22.1875 83.3944 22.1875C83.3949 22.1875 83.3953 22.1875 83.3957 22.1875C83.3961 22.1875 83.3965 22.1875 83.397 22.1875C83.3974 22.1875 83.3978 22.1875 83.3982 22.1875C83.3987 22.1875 83.3991 22.1875 83.3995 22.1875C83.3999 22.1875 83.4003 22.1875 83.4008 22.1875C83.4012 22.1875 83.4016 22.1875 83.402 22.1875C83.4025 22.1875 83.4029 22.1875 83.4033 22.1875C83.4037 22.1875 83.4041 22.1875 83.4046 22.1875C83.405 22.1875 83.4054 22.1875 83.4058 22.1875C83.4063 22.1875 83.4067 22.1875 83.4071 22.1875C83.4075 22.1875 83.408 22.1875 83.4084 22.1875C83.4088 22.1875 83.4092 22.1875 83.4096 22.1875C83.4101 22.1875 83.4105 22.1875 83.4109 22.1875C83.4113 22.1875 83.4118 22.1875 83.4122 22.1875C83.4126 22.1875 83.413 22.1875 83.4134 22.1875C83.4139 22.1875 83.4143 22.1875 83.4147 22.1875C83.4151 22.1875 83.4156 22.1875 83.416 22.1875C83.4164 22.1875 83.4168 22.1875 83.4173 22.1875C83.4177 22.1875 83.4181 22.1875 83.4185 22.1875C83.4189 22.1875 83.4194 22.1875 83.4198 22.1875C83.4202 22.1875 83.4206 22.1875 83.4211 22.1875C83.4215 22.1875 83.4219 22.1875 83.4223 22.1875C83.4228 22.1875 83.4232 22.1875 83.4236 22.1875C83.424 22.1875 83.4244 22.1875 83.4249 22.1875C83.4253 22.1875 83.4257 22.1875 83.4261 22.1875C83.4266 22.1875 83.427 22.1875 83.4274 22.1875C83.4278 22.1875 83.4283 22.1875 83.4287 22.1875C83.4291 22.1875 83.4295 22.1875 83.43 22.1875C83.4304 22.1875 83.4308 22.1875 83.4312 22.1875C83.4316 22.1875 83.4321 22.1875 83.4325 22.1875C83.4329 22.1875 83.4333 22.1875 83.4338 22.1875C83.4342 22.1875 83.4346 22.1875 83.435 22.1875C83.4355 22.1875 83.4359 22.1875 83.4363 22.1875C83.4367 22.1875 83.4372 22.1875 83.4376 22.1875C83.438 22.1875 83.4384 22.1875 83.4389 22.1875C83.4393 22.1875 83.4397 22.1875 83.4401 22.1875C83.4405 22.1875 83.441 22.1875 83.4414 22.1875C83.4418 22.1875 83.4422 22.1875 83.4427 22.1875C83.4431 22.1875 83.4435 22.1875 83.4439 22.1875C83.4444 22.1875 83.4448 22.1875 83.4452 22.1875C83.4456 22.1875 83.4461 22.1875 83.4465 22.1875C83.4469 22.1875 83.4473 22.1875 83.4478 22.1875C83.4482 22.1875 83.4486 22.1875 83.449 22.1875C83.4495 22.1875 83.4499 22.1875 83.4503 22.1875C83.4507 22.1875 83.4512 22.1875 83.4516 22.1875C83.452 22.1875 83.4524 22.1875 83.4529 22.1875C83.4533 22.1875 83.4537 22.1875 83.4541 22.1875C83.4546 22.1875 83.455 22.1875 83.4554 22.1875C83.4558 22.1875 83.4563 22.1875 83.4567 22.1875C83.4571 22.1875 83.4575 22.1875 83.458 22.1875C83.4584 22.1875 83.4588 22.1875 83.4592 22.1875C83.4597 22.1875 83.4601 22.1875 83.4605 22.1875C83.4609 22.1875 83.4614 22.1875 83.4618 22.1875C83.4622 22.1875 83.4626 22.1875 83.4631 22.1875C83.4635 22.1875 83.4639 22.1875 83.4643 22.1875C83.4648 22.1875 83.4652 22.1875 83.4656 22.1875C83.466 22.1875 83.4665 22.1875 83.4669 22.1875C83.4673 22.1875 83.4677 22.1875 83.4682 22.1875C83.4686 22.1875 83.469 22.1875 83.4694 22.1875C83.4699 22.1875 83.4703 22.1875 83.4707 22.1875C83.4711 22.1875 83.4716 22.1875 83.472 22.1875C83.4724 22.1875 83.4728 22.1875 83.4733 22.1875C83.4737 22.1875 83.4741 22.1875 83.4745 22.1875C83.475 22.1875 83.4754 22.1875 83.4758 22.1875C83.4762 22.1875 83.4767 22.1875 83.4771 22.1875C83.4775 22.1875 83.4779 22.1875 83.4784 22.1875C83.4788 22.1875 83.4792 22.1875 83.4796 22.1875C83.4801 22.1875 83.4805 22.1875 83.4809 22.1875C83.4814 22.1875 83.4818 22.1875 83.4822 22.1875C83.4826 22.1875 83.4831 22.1875 83.4835 22.1875C83.4839 22.1875 83.4843 22.1875 83.4848 22.1875C83.4852 22.1875 83.4856 22.1875 83.486 22.1875C83.4865 22.1875 83.4869 22.1875 83.4873 22.1875C83.4877 22.1875 83.4882 22.1875 83.4886 22.1875C83.489 22.1875 83.4895 22.1875 83.4899 22.1875C83.4903 22.1875 83.4907 22.1875 83.4912 22.1875C83.4916 22.1875 83.492 22.1875 83.4924 22.1875C83.4929 22.1875 83.4933 22.1875 83.4937 22.1875C83.4941 22.1875 83.4946 22.1875 83.495 22.1875C83.4954 22.1875 83.4958 22.1875 83.4963 22.1875C83.4967 22.1875 83.4971 22.1875 83.4976 22.1875C83.498 22.1875 83.4984 22.1875 83.4988 22.1875C83.4993 22.1875 83.4997 22.1875 83.5001 22.1875C83.5005 22.1875 83.501 22.1875 83.5014 22.1875C83.5018 22.1875 83.5023 22.1875 83.5027 22.1875C83.5031 22.1875 83.5035 22.1875 83.504 22.1875C83.5044 22.1875 83.5048 22.1875 83.5052 22.1875C83.5057 22.1875 83.5061 22.1875 83.5065 22.1875C83.507 22.1875 83.5074 22.1875 83.5078 22.1875V18.1875C83.5074 18.1875 83.507 18.1875 83.5065 18.1875C83.5061 18.1875 83.5057 18.1875 83.5052 18.1875C83.5048 18.1875 83.5044 18.1875 83.504 18.1875C83.5035 18.1875 83.5031 18.1875 83.5027 18.1875C83.5023 18.1875 83.5018 18.1875 83.5014 18.1875C83.501 18.1875 83.5005 18.1875 83.5001 18.1875C83.4997 18.1875 83.4993 18.1875 83.4988 18.1875C83.4984 18.1875 83.498 18.1875 83.4976 18.1875C83.4971 18.1875 83.4967 18.1875 83.4963 18.1875C83.4958 18.1875 83.4954 18.1875 83.495 18.1875C83.4946 18.1875 83.4941 18.1875 83.4937 18.1875C83.4933 18.1875 83.4929 18.1875 83.4924 18.1875C83.492 18.1875 83.4916 18.1875 83.4912 18.1875C83.4907 18.1875 83.4903 18.1875 83.4899 18.1875C83.4895 18.1875 83.489 18.1875 83.4886 18.1875C83.4882 18.1875 83.4877 18.1875 83.4873 18.1875C83.4869 18.1875 83.4865 18.1875 83.486 18.1875C83.4856 18.1875 83.4852 18.1875 83.4848 18.1875C83.4843 18.1875 83.4839 18.1875 83.4835 18.1875C83.4831 18.1875 83.4826 18.1875 83.4822 18.1875C83.4818 18.1875 83.4814 18.1875 83.4809 18.1875C83.4805 18.1875 83.4801 18.1875 83.4796 18.1875C83.4792 18.1875 83.4788 18.1875 83.4784 18.1875C83.4779 18.1875 83.4775 18.1875 83.4771 18.1875C83.4767 18.1875 83.4762 18.1875 83.4758 18.1875C83.4754 18.1875 83.475 18.1875 83.4745 18.1875C83.4741 18.1875 83.4737 18.1875 83.4733 18.1875C83.4728 18.1875 83.4724 18.1875 83.472 18.1875C83.4716 18.1875 83.4711 18.1875 83.4707 18.1875C83.4703 18.1875 83.4699 18.1875 83.4694 18.1875C83.469 18.1875 83.4686 18.1875 83.4682 18.1875C83.4677 18.1875 83.4673 18.1875 83.4669 18.1875C83.4665 18.1875 83.466 18.1875 83.4656 18.1875C83.4652 18.1875 83.4648 18.1875 83.4643 18.1875C83.4639 18.1875 83.4635 18.1875 83.4631 18.1875C83.4626 18.1875 83.4622 18.1875 83.4618 18.1875C83.4614 18.1875 83.4609 18.1875 83.4605 18.1875C83.4601 18.1875 83.4597 18.1875 83.4592 18.1875C83.4588 18.1875 83.4584 18.1875 83.458 18.1875C83.4575 18.1875 83.4571 18.1875 83.4567 18.1875C83.4563 18.1875 83.4558 18.1875 83.4554 18.1875C83.455 18.1875 83.4546 18.1875 83.4541 18.1875C83.4537 18.1875 83.4533 18.1875 83.4529 18.1875C83.4524 18.1875 83.452 18.1875 83.4516 18.1875C83.4512 18.1875 83.4507 18.1875 83.4503 18.1875C83.4499 18.1875 83.4495 18.1875 83.449 18.1875C83.4486 18.1875 83.4482 18.1875 83.4478 18.1875C83.4473 18.1875 83.4469 18.1875 83.4465 18.1875C83.4461 18.1875 83.4456 18.1875 83.4452 18.1875C83.4448 18.1875 83.4444 18.1875 83.4439 18.1875C83.4435 18.1875 83.4431 18.1875 83.4427 18.1875C83.4422 18.1875 83.4418 18.1875 83.4414 18.1875C83.441 18.1875 83.4405 18.1875 83.4401 18.1875C83.4397 18.1875 83.4393 18.1875 83.4389 18.1875C83.4384 18.1875 83.438 18.1875 83.4376 18.1875C83.4372 18.1875 83.4367 18.1875 83.4363 18.1875C83.4359 18.1875 83.4355 18.1875 83.435 18.1875C83.4346 18.1875 83.4342 18.1875 83.4338 18.1875C83.4333 18.1875 83.4329 18.1875 83.4325 18.1875C83.4321 18.1875 83.4316 18.1875 83.4312 18.1875C83.4308 18.1875 83.4304 18.1875 83.43 18.1875C83.4295 18.1875 83.4291 18.1875 83.4287 18.1875C83.4283 18.1875 83.4278 18.1875 83.4274 18.1875C83.427 18.1875 83.4266 18.1875 83.4261 18.1875C83.4257 18.1875 83.4253 18.1875 83.4249 18.1875C83.4244 18.1875 83.424 18.1875 83.4236 18.1875C83.4232 18.1875 83.4228 18.1875 83.4223 18.1875C83.4219 18.1875 83.4215 18.1875 83.4211 18.1875C83.4206 18.1875 83.4202 18.1875 83.4198 18.1875C83.4194 18.1875 83.4189 18.1875 83.4185 18.1875C83.4181 18.1875 83.4177 18.1875 83.4173 18.1875C83.4168 18.1875 83.4164 18.1875 83.416 18.1875C83.4156 18.1875 83.4151 18.1875 83.4147 18.1875C83.4143 18.1875 83.4139 18.1875 83.4134 18.1875C83.413 18.1875 83.4126 18.1875 83.4122 18.1875C83.4118 18.1875 83.4113 18.1875 83.4109 18.1875C83.4105 18.1875 83.4101 18.1875 83.4096 18.1875C83.4092 18.1875 83.4088 18.1875 83.4084 18.1875C83.408 18.1875 83.4075 18.1875 83.4071 18.1875C83.4067 18.1875 83.4063 18.1875 83.4058 18.1875C83.4054 18.1875 83.405 18.1875 83.4046 18.1875C83.4041 18.1875 83.4037 18.1875 83.4033 18.1875C83.4029 18.1875 83.4025 18.1875 83.402 18.1875C83.4016 18.1875 83.4012 18.1875 83.4008 18.1875C83.4003 18.1875 83.3999 18.1875 83.3995 18.1875C83.3991 18.1875 83.3987 18.1875 83.3982 18.1875C83.3978 18.1875 83.3974 18.1875 83.397 18.1875C83.3965 18.1875 83.3961 18.1875 83.3957 18.1875C83.3953 18.1875 83.3949 18.1875 83.3944 18.1875C83.394 18.1875 83.3936 18.1875 83.3932 18.1875C83.3928 18.1875 83.3923 18.1875 83.3919 18.1875C83.3915 18.1875 83.3911 18.1875 83.3906 18.1875C83.3902 18.1875 83.3898 18.1875 83.3894 18.1875C83.389 18.1875 83.3885 18.1875 83.3881 18.1875C83.3877 18.1875 83.3873 18.1875 83.3868 18.1875C83.3864 18.1875 83.386 18.1875 83.3856 18.1875C83.3852 18.1875 83.3847 18.1875 83.3843 18.1875C83.3839 18.1875 83.3835 18.1875 83.3831 18.1875C83.3826 18.1875 83.3822 18.1875 83.3818 18.1875C83.3814 18.1875 83.3809 18.1875 83.3805 18.1875C83.3801 18.1875 83.3797 18.1875 83.3793 18.1875C83.3788 18.1875 83.3784 18.1875 83.378 18.1875C83.3776 18.1875 83.3772 18.1875 83.3767 18.1875C83.3763 18.1875 83.3759 18.1875 83.3755 18.1875C83.3751 18.1875 83.3746 18.1875 83.3742 18.1875C83.3738 18.1875 83.3734 18.1875 83.3729 18.1875C83.3725 18.1875 83.3721 18.1875 83.3717 18.1875C83.3713 18.1875 83.3708 18.1875 83.3704 18.1875C83.37 18.1875 83.3696 18.1875 83.3692 18.1875C83.3687 18.1875 83.3683 18.1875 83.3679 18.1875C83.3675 18.1875 83.3671 18.1875 83.3666 18.1875C83.3662 18.1875 83.3658 18.1875 83.3654 18.1875C83.365 18.1875 83.3645 18.1875 83.3641 18.1875C83.3637 18.1875 83.3633 18.1875 83.3628 18.1875C83.3624 18.1875 83.362 18.1875 83.3616 18.1875C83.3612 18.1875 83.3607 18.1875 83.3603 18.1875C83.3599 18.1875 83.3595 18.1875 83.3591 18.1875C83.3586 18.1875 83.3582 18.1875 83.3578 18.1875C83.3574 18.1875 83.357 18.1875 83.3565 18.1875C83.3561 18.1875 83.3557 18.1875 83.3553 18.1875C83.3549 18.1875 83.3544 18.1875 83.354 18.1875C83.3536 18.1875 83.3532 18.1875 83.3528 18.1875C83.3523 18.1875 83.3519 18.1875 83.3515 18.1875C83.3511 18.1875 83.3507 18.1875 83.3502 18.1875C83.3498 18.1875 83.3494 18.1875 83.349 18.1875C83.3486 18.1875 83.3481 18.1875 83.3477 18.1875C83.3473 18.1875 83.3469 18.1875 83.3465 18.1875C83.346 18.1875 83.3456 18.1875 83.3452 18.1875C83.3448 18.1875 83.3444 18.1875 83.3439 18.1875C83.3435 18.1875 83.3431 18.1875 83.3427 18.1875C83.3423 18.1875 83.3419 18.1875 83.3414 18.1875C83.341 18.1875 83.3406 18.1875 83.3402 18.1875C83.3398 18.1875 83.3393 18.1875 83.3389 18.1875C83.3385 18.1875 83.3381 18.1875 83.3377 18.1875C83.3372 18.1875 83.3368 18.1875 83.3364 18.1875C83.336 18.1875 83.3356 18.1875 83.3351 18.1875C83.3347 18.1875 83.3343 18.1875 83.3339 18.1875C83.3335 18.1875 83.333 18.1875 83.3326 18.1875C83.3322 18.1875 83.3318 18.1875 83.3314 18.1875C83.331 18.1875 83.3305 18.1875 83.3301 18.1875C83.3297 18.1875 83.3293 18.1875 83.3289 18.1875C83.3284 18.1875 83.328 18.1875 83.3276 18.1875C83.3272 18.1875 83.3268 18.1875 83.3263 18.1875C83.3259 18.1875 83.3255 18.1875 83.3251 18.1875C83.3247 18.1875 83.3243 18.1875 83.3238 18.1875C83.3234 18.1875 83.323 18.1875 83.3226 18.1875C83.3222 18.1875 83.3217 18.1875 83.3213 18.1875C83.3209 18.1875 83.3205 18.1875 83.3201 18.1875C83.3196 18.1875 83.3192 18.1875 83.3188 18.1875C83.3184 18.1875 83.318 18.1875 83.3176 18.1875C83.3171 18.1875 83.3167 18.1875 83.3163 18.1875C83.3159 18.1875 83.3155 18.1875 83.315 18.1875C83.3146 18.1875 83.3142 18.1875 83.3138 18.1875C83.3134 18.1875 83.313 18.1875 83.3125 18.1875C83.3121 18.1875 83.3117 18.1875 83.3113 18.1875C83.3109 18.1875 83.3104 18.1875 83.31 18.1875C83.3096 18.1875 83.3092 18.1875 83.3088 18.1875C83.3084 18.1875 83.3079 18.1875 83.3075 18.1875C83.3071 18.1875 83.3067 18.1875 83.3063 18.1875C83.3059 18.1875 83.3054 18.1875 83.305 18.1875C83.3046 18.1875 83.3042 18.1875 83.3038 18.1875C83.3033 18.1875 83.3029 18.1875 83.3025 18.1875C83.3021 18.1875 83.3017 18.1875 83.3013 18.1875C83.3008 18.1875 83.3004 18.1875 83.3 18.1875C83.2996 18.1875 83.2992 18.1875 83.2988 18.1875C83.2983 18.1875 83.2979 18.1875 83.2975 18.1875C83.2971 18.1875 83.2967 18.1875 83.2962 18.1875C83.2958 18.1875 83.2954 18.1875 83.295 18.1875C83.2946 18.1875 83.2942 18.1875 83.2937 18.1875C83.2933 18.1875 83.2929 18.1875 83.2925 18.1875C83.2921 18.1875 83.2917 18.1875 83.2912 18.1875C83.2908 18.1875 83.2904 18.1875 83.29 18.1875C83.2896 18.1875 83.2892 18.1875 83.2887 18.1875C83.2883 18.1875 83.2879 18.1875 83.2875 18.1875C83.2871 18.1875 83.2867 18.1875 83.2862 18.1875C83.2858 18.1875 83.2854 18.1875 83.285 18.1875C83.2846 18.1875 83.2842 18.1875 83.2837 18.1875C83.2833 18.1875 83.2829 18.1875 83.2825 18.1875C83.2821 18.1875 83.2817 18.1875 83.2812 18.1875C83.2808 18.1875 83.2804 18.1875 83.28 18.1875C83.2796 18.1875 83.2792 18.1875 83.2787 18.1875C83.2783 18.1875 83.2779 18.1875 83.2775 18.1875C83.2771 18.1875 83.2767 18.1875 83.2762 18.1875C83.2758 18.1875 83.2754 18.1875 83.275 18.1875C83.2746 18.1875 83.2742 18.1875 83.2737 18.1875C83.2733 18.1875 83.2729 18.1875 83.2725 18.1875C83.2721 18.1875 83.2717 18.1875 83.2712 18.1875C83.2708 18.1875 83.2704 18.1875 83.27 18.1875C83.2696 18.1875 83.2692 18.1875 83.2688 18.1875C83.2683 18.1875 83.2679 18.1875 83.2675 18.1875C83.2671 18.1875 83.2667 18.1875 83.2663 18.1875C83.2658 18.1875 83.2654 18.1875 83.265 18.1875C83.2646 18.1875 83.2642 18.1875 83.2638 18.1875C83.2633 18.1875 83.2629 18.1875 83.2625 18.1875C83.2621 18.1875 83.2617 18.1875 83.2613 18.1875C83.2608 18.1875 83.2604 18.1875 83.26 18.1875C83.2596 18.1875 83.2592 18.1875 83.2588 18.1875C83.2584 18.1875 83.2579 18.1875 83.2575 18.1875C83.2571 18.1875 83.2567 18.1875 83.2563 18.1875C83.2559 18.1875 83.2554 18.1875 83.255 18.1875C83.2546 18.1875 83.2542 18.1875 83.2538 18.1875C83.2534 18.1875 83.253 18.1875 83.2525 18.1875C83.2521 18.1875 83.2517 18.1875 83.2513 18.1875C83.2509 18.1875 83.2505 18.1875 83.2501 18.1875C83.2496 18.1875 83.2492 18.1875 83.2488 18.1875C83.2484 18.1875 83.248 18.1875 83.2476 18.1875C83.2471 18.1875 83.2467 18.1875 83.2463 18.1875C83.2459 18.1875 83.2455 18.1875 83.2451 18.1875C83.2447 18.1875 83.2442 18.1875 83.2438 18.1875C83.2434 18.1875 83.243 18.1875 83.2426 18.1875C83.2422 18.1875 83.2418 18.1875 83.2413 18.1875C83.2409 18.1875 83.2405 18.1875 83.2401 18.1875C83.2397 18.1875 83.2393 18.1875 83.2389 18.1875C83.2384 18.1875 83.238 18.1875 83.2376 18.1875C83.2372 18.1875 83.2368 18.1875 83.2364 18.1875C83.2359 18.1875 83.2355 18.1875 83.2351 18.1875C83.2347 18.1875 83.2343 18.1875 83.2339 18.1875C83.2335 18.1875 83.233 18.1875 83.2326 18.1875C83.2322 18.1875 83.2318 18.1875 83.2314 18.1875C83.231 18.1875 83.2306 18.1875 83.2301 18.1875C83.2297 18.1875 83.2293 18.1875 83.2289 18.1875C83.2285 18.1875 83.2281 18.1875 83.2277 18.1875C83.2273 18.1875 83.2268 18.1875 83.2264 18.1875C83.226 18.1875 83.2256 18.1875 83.2252 18.1875C83.2248 18.1875 83.2244 18.1875 83.2239 18.1875C83.2235 18.1875 83.2231 18.1875 83.2227 18.1875C83.2223 18.1875 83.2219 18.1875 83.2215 18.1875C83.221 18.1875 83.2206 18.1875 83.2202 18.1875C83.2198 18.1875 83.2194 18.1875 83.219 18.1875C83.2186 18.1875 83.2181 18.1875 83.2177 18.1875C83.2173 18.1875 83.2169 18.1875 83.2165 18.1875C83.2161 18.1875 83.2157 18.1875 83.2153 18.1875C83.2148 18.1875 83.2144 18.1875 83.214 18.1875C83.2136 18.1875 83.2132 18.1875 83.2128 18.1875C83.2124 18.1875 83.2119 18.1875 83.2115 18.1875C83.2111 18.1875 83.2107 18.1875 83.2103 18.1875C83.2099 18.1875 83.2095 18.1875 83.2091 18.1875C83.2086 18.1875 83.2082 18.1875 83.2078 18.1875C83.2074 18.1875 83.207 18.1875 83.2066 18.1875C83.2062 18.1875 83.2058 18.1875 83.2053 18.1875C83.2049 18.1875 83.2045 18.1875 83.2041 18.1875C83.2037 18.1875 83.2033 18.1875 83.2029 18.1875C83.2024 18.1875 83.202 18.1875 83.2016 18.1875C83.2012 18.1875 83.2008 18.1875 83.2004 18.1875C83.2 18.1875 83.1996 18.1875 83.1991 18.1875C83.1987 18.1875 83.1983 18.1875 83.1979 18.1875C83.1975 18.1875 83.1971 18.1875 83.1967 18.1875C83.1963 18.1875 83.1958 18.1875 83.1954 18.1875C83.195 18.1875 83.1946 18.1875 83.1942 18.1875C83.1938 18.1875 83.1934 18.1875 83.193 18.1875C83.1925 18.1875 83.1921 18.1875 83.1917 18.1875C83.1913 18.1875 83.1909 18.1875 83.1905 18.1875C83.1901 18.1875 83.1897 18.1875 83.1892 18.1875C83.1888 18.1875 83.1884 18.1875 83.188 18.1875C83.1876 18.1875 83.1872 18.1875 83.1868 18.1875C83.1864 18.1875 83.186 18.1875 83.1855 18.1875C83.1851 18.1875 83.1847 18.1875 83.1843 18.1875C83.1839 18.1875 83.1835 18.1875 83.1831 18.1875C83.1827 18.1875 83.1822 18.1875 83.1818 18.1875C83.1814 18.1875 83.181 18.1875 83.1806 18.1875C83.1802 18.1875 83.1798 18.1875 83.1794 18.1875C83.1789 18.1875 83.1785 18.1875 83.1781 18.1875C83.1777 18.1875 83.1773 18.1875 83.1769 18.1875C83.1765 18.1875 83.1761 18.1875 83.1757 18.1875C83.1752 18.1875 83.1748 18.1875 83.1744 18.1875C83.174 18.1875 83.1736 18.1875 83.1732 18.1875C83.1728 18.1875 83.1724 18.1875 83.172 18.1875C83.1715 18.1875 83.1711 18.1875 83.1707 18.1875C83.1703 18.1875 83.1699 18.1875 83.1695 18.1875C83.1691 18.1875 83.1687 18.1875 83.1683 18.1875C83.1678 18.1875 83.1674 18.1875 83.167 18.1875C83.1666 18.1875 83.1662 18.1875 83.1658 18.1875C83.1654 18.1875 83.165 18.1875 83.1646 18.1875C83.1641 18.1875 83.1637 18.1875 83.1633 18.1875C83.1629 18.1875 83.1625 18.1875 83.1621 18.1875C83.1617 18.1875 83.1613 18.1875 83.1609 18.1875C83.1604 18.1875 83.16 18.1875 83.1596 18.1875C83.1592 18.1875 83.1588 18.1875 83.1584 18.1875C83.158 18.1875 83.1576 18.1875 83.1572 18.1875C83.1567 18.1875 83.1563 18.1875 83.1559 18.1875C83.1555 18.1875 83.1551 18.1875 83.1547 18.1875C83.1543 18.1875 83.1539 18.1875 83.1535 18.1875C83.1531 18.1875 83.1526 18.1875 83.1522 18.1875C83.1518 18.1875 83.1514 18.1875 83.151 18.1875C83.1506 18.1875 83.1502 18.1875 83.1498 18.1875C83.1494 18.1875 83.149 18.1875 83.1485 18.1875C83.1481 18.1875 83.1477 18.1875 83.1473 18.1875C83.1469 18.1875 83.1465 18.1875 83.1461 18.1875C83.1457 18.1875 83.1453 18.1875 83.1448 18.1875C83.1444 18.1875 83.144 18.1875 83.1436 18.1875C83.1432 18.1875 83.1428 18.1875 83.1424 18.1875C83.142 18.1875 83.1416 18.1875 83.1412 18.1875C83.1408 18.1875 83.1403 18.1875 83.1399 18.1875C83.1395 18.1875 83.1391 18.1875 83.1387 18.1875C83.1383 18.1875 83.1379 18.1875 83.1375 18.1875C83.1371 18.1875 83.1367 18.1875 83.1362 18.1875C83.1358 18.1875 83.1354 18.1875 83.135 18.1875C83.1346 18.1875 83.1342 18.1875 83.1338 18.1875C83.1334 18.1875 83.133 18.1875 83.1326 18.1875C83.1321 18.1875 83.1317 18.1875 83.1313 18.1875C83.1309 18.1875 83.1305 18.1875 83.1301 18.1875C83.1297 18.1875 83.1293 18.1875 83.1289 18.1875C83.1285 18.1875 83.1281 18.1875 83.1276 18.1875C83.1272 18.1875 83.1268 18.1875 83.1264 18.1875C83.126 18.1875 83.1256 18.1875 83.1252 18.1875C83.1248 18.1875 83.1244 18.1875 83.124 18.1875C83.1236 18.1875 83.1231 18.1875 83.1227 18.1875C83.1223 18.1875 83.1219 18.1875 83.1215 18.1875C83.1211 18.1875 83.1207 18.1875 83.1203 18.1875C83.1199 18.1875 83.1195 18.1875 83.1191 18.1875C83.1186 18.1875 83.1182 18.1875 83.1178 18.1875C83.1174 18.1875 83.117 18.1875 83.1166 18.1875C83.1162 18.1875 83.1158 18.1875 83.1154 18.1875C83.115 18.1875 83.1146 18.1875 83.1142 18.1875C83.1137 18.1875 83.1133 18.1875 83.1129 18.1875C83.1125 18.1875 83.1121 18.1875 83.1117 18.1875C83.1113 18.1875 83.1109 18.1875 83.1105 18.1875C83.1101 18.1875 83.1097 18.1875 83.1093 18.1875C83.1088 18.1875 83.1084 18.1875 83.108 18.1875C83.1076 18.1875 83.1072 18.1875 83.1068 18.1875C83.1064 18.1875 83.106 18.1875 83.1056 18.1875C83.1052 18.1875 83.1048 18.1875 83.1044 18.1875C83.1039 18.1875 83.1035 18.1875 83.1031 18.1875C83.1027 18.1875 83.1023 18.1875 83.1019 18.1875C83.1015 18.1875 83.1011 18.1875 83.1007 18.1875C83.1003 18.1875 83.0999 18.1875 83.0995 18.1875C83.0991 18.1875 83.0986 18.1875 83.0982 18.1875C83.0978 18.1875 83.0974 18.1875 83.097 18.1875C83.0966 18.1875 83.0962 18.1875 83.0958 18.1875C83.0954 18.1875 83.095 18.1875 83.0946 18.1875C83.0942 18.1875 83.0938 18.1875 83.0933 18.1875C83.0929 18.1875 83.0925 18.1875 83.0921 18.1875C83.0917 18.1875 83.0913 18.1875 83.0909 18.1875C83.0905 18.1875 83.0901 18.1875 83.0897 18.1875C83.0893 18.1875 83.0889 18.1875 83.0885 18.1875C83.088 18.1875 83.0876 18.1875 83.0872 18.1875C83.0868 18.1875 83.0864 18.1875 83.086 18.1875C83.0856 18.1875 83.0852 18.1875 83.0848 18.1875C83.0844 18.1875 83.084 18.1875 83.0836 18.1875C83.0832 18.1875 83.0828 18.1875 83.0823 18.1875C83.0819 18.1875 83.0815 18.1875 83.0811 18.1875C83.0807 18.1875 83.0803 18.1875 83.0799 18.1875C83.0795 18.1875 83.0791 18.1875 83.0787 18.1875C83.0783 18.1875 83.0779 18.1875 83.0775 18.1875C83.0771 18.1875 83.0767 18.1875 83.0762 18.1875C83.0758 18.1875 83.0754 18.1875 83.075 18.1875C83.0746 18.1875 83.0742 18.1875 83.0738 18.1875C83.0734 18.1875 83.073 18.1875 83.0726 18.1875C83.0722 18.1875 83.0718 18.1875 83.0714 18.1875C83.071 18.1875 83.0706 18.1875 83.0701 18.1875C83.0697 18.1875 83.0693 18.1875 83.0689 18.1875C83.0685 18.1875 83.0681 18.1875 83.0677 18.1875C83.0673 18.1875 83.0669 18.1875 83.0665 18.1875C83.0661 18.1875 83.0657 18.1875 83.0653 18.1875C83.0649 18.1875 83.0645 18.1875 83.0641 18.1875C83.0636 18.1875 83.0632 18.1875 83.0628 18.1875C83.0624 18.1875 83.062 18.1875 83.0616 18.1875C83.0612 18.1875 83.0608 18.1875 83.0604 18.1875C83.06 18.1875 83.0596 18.1875 83.0592 18.1875C83.0588 18.1875 83.0584 18.1875 83.058 18.1875C83.0576 18.1875 83.0572 18.1875 83.0567 18.1875C83.0563 18.1875 83.0559 18.1875 83.0555 18.1875C83.0551 18.1875 83.0547 18.1875 83.0543 18.1875C83.0539 18.1875 83.0535 18.1875 83.0531 18.1875C83.0527 18.1875 83.0523 18.1875 83.0519 18.1875C83.0515 18.1875 83.0511 18.1875 83.0507 18.1875C83.0503 18.1875 83.0499 18.1875 83.0494 18.1875C83.049 18.1875 83.0486 18.1875 83.0482 18.1875C83.0478 18.1875 83.0474 18.1875 83.047 18.1875C83.0466 18.1875 83.0462 18.1875 83.0458 18.1875C83.0454 18.1875 83.045 18.1875 83.0446 18.1875C83.0442 18.1875 83.0438 18.1875 83.0434 18.1875C83.043 18.1875 83.0426 18.1875 83.0422 18.1875C83.0418 18.1875 83.0413 18.1875 83.0409 18.1875C83.0405 18.1875 83.0401 18.1875 83.0397 18.1875C83.0393 18.1875 83.0389 18.1875 83.0385 18.1875C83.0381 18.1875 83.0377 18.1875 83.0373 18.1875C83.0369 18.1875 83.0365 18.1875 83.0361 18.1875C83.0357 18.1875 83.0353 18.1875 83.0349 18.1875C83.0345 18.1875 83.0341 18.1875 83.0337 18.1875C83.0333 18.1875 83.0328 18.1875 83.0324 18.1875C83.032 18.1875 83.0316 18.1875 83.0312 18.1875C83.0308 18.1875 83.0304 18.1875 83.03 18.1875C83.0296 18.1875 83.0292 18.1875 83.0288 18.1875C83.0284 18.1875 83.028 18.1875 83.0276 18.1875C83.0272 18.1875 83.0268 18.1875 83.0264 18.1875C83.026 18.1875 83.0256 18.1875 83.0252 18.1875C83.0248 18.1875 83.0244 18.1875 83.024 18.1875C83.0235 18.1875 83.0231 18.1875 83.0227 18.1875C83.0223 18.1875 83.0219 18.1875 83.0215 18.1875C83.0211 18.1875 83.0207 18.1875 83.0203 18.1875C83.0199 18.1875 83.0195 18.1875 83.0191 18.1875C83.0187 18.1875 83.0183 18.1875 83.0179 18.1875C83.0175 18.1875 83.0171 18.1875 83.0167 18.1875C83.0163 18.1875 83.0159 18.1875 83.0155 18.1875C83.0151 18.1875 83.0147 18.1875 83.0143 18.1875C83.0139 18.1875 83.0134 18.1875 83.013 18.1875C83.0126 18.1875 83.0122 18.1875 83.0118 18.1875C83.0114 18.1875 83.011 18.1875 83.0106 18.1875C83.0102 18.1875 83.0098 18.1875 83.0094 18.1875C83.009 18.1875 83.0086 18.1875 83.0082 18.1875C83.0078 18.1875 83.0074 18.1875 83.007 18.1875C83.0066 18.1875 83.0062 18.1875 83.0058 18.1875C83.0054 18.1875 83.005 18.1875 83.0046 18.1875C83.0042 18.1875 83.0038 18.1875 83.0034 18.1875C83.003 18.1875 83.0026 18.1875 83.0022 18.1875C83.0018 18.1875 83.0014 18.1875 83.0009 18.1875C83.0005 18.1875 83.0001 18.1875 82.9997 18.1875C82.9993 18.1875 82.9989 18.1875 82.9985 18.1875C82.9981 18.1875 82.9977 18.1875 82.9973 18.1875C82.9969 18.1875 82.9965 18.1875 82.9961 18.1875C82.9957 18.1875 82.9953 18.1875 82.9949 18.1875C82.9945 18.1875 82.9941 18.1875 82.9937 18.1875C82.9933 18.1875 82.9929 18.1875 82.9925 18.1875C82.9921 18.1875 82.9917 18.1875 82.9913 18.1875C82.9909 18.1875 82.9905 18.1875 82.9901 18.1875C82.9897 18.1875 82.9893 18.1875 82.9889 18.1875C82.9885 18.1875 82.9881 18.1875 82.9877 18.1875C82.9873 18.1875 82.9869 18.1875 82.9865 18.1875C82.9861 18.1875 82.9856 18.1875 82.9852 18.1875C82.9848 18.1875 82.9844 18.1875 82.984 18.1875C82.9836 18.1875 82.9832 18.1875 82.9828 18.1875C82.9824 18.1875 82.982 18.1875 82.9816 18.1875C82.9812 18.1875 82.9808 18.1875 82.9804 18.1875C82.98 18.1875 82.9796 18.1875 82.9792 18.1875C82.9788 18.1875 82.9784 18.1875 82.978 18.1875C82.9776 18.1875 82.9772 18.1875 82.9768 18.1875C82.9764 18.1875 82.976 18.1875 82.9756 18.1875C82.9752 18.1875 82.9748 18.1875 82.9744 18.1875C82.974 18.1875 82.9736 18.1875 82.9732 18.1875C82.9728 18.1875 82.9724 18.1875 82.972 18.1875C82.9716 18.1875 82.9712 18.1875 82.9708 18.1875C82.9704 18.1875 82.97 18.1875 82.9696 18.1875C82.9692 18.1875 82.9688 18.1875 82.9684 18.1875C82.968 18.1875 82.9676 18.1875 82.9672 18.1875C82.9668 18.1875 82.9664 18.1875 82.966 18.1875C82.9656 18.1875 82.9652 18.1875 82.9648 18.1875C82.9644 18.1875 82.964 18.1875 82.9636 18.1875C82.9632 18.1875 82.9628 18.1875 82.9624 18.1875C82.962 18.1875 82.9616 18.1875 82.9611 18.1875C82.9607 18.1875 82.9603 18.1875 82.9599 18.1875C82.9595 18.1875 82.9591 18.1875 82.9587 18.1875C82.9583 18.1875 82.9579 18.1875 82.9575 18.1875C82.9571 18.1875 82.9567 18.1875 82.9563 18.1875C82.9559 18.1875 82.9555 18.1875 82.9551 18.1875C82.9547 18.1875 82.9543 18.1875 82.9539 18.1875C82.9535 18.1875 82.9531 18.1875 82.9527 18.1875C82.9523 18.1875 82.9519 18.1875 82.9515 18.1875C82.9511 18.1875 82.9507 18.1875 82.9503 18.1875C82.9499 18.1875 82.9495 18.1875 82.9491 18.1875C82.9487 18.1875 82.9483 18.1875 82.9479 18.1875C82.9475 18.1875 82.9471 18.1875 82.9467 18.1875C82.9463 18.1875 82.9459 18.1875 82.9455 18.1875C82.9451 18.1875 82.9447 18.1875 82.9443 18.1875C82.9439 18.1875 82.9435 18.1875 82.9431 18.1875C82.9427 18.1875 82.9423 18.1875 82.9419 18.1875C82.9415 18.1875 82.9411 18.1875 82.9407 18.1875C82.9403 18.1875 82.9399 18.1875 82.9395 18.1875C82.9391 18.1875 82.9387 18.1875 82.9383 18.1875C82.9379 18.1875 82.9375 18.1875 82.9371 18.1875C82.9367 18.1875 82.9363 18.1875 82.9359 18.1875C82.9355 18.1875 82.9351 18.1875 82.9347 18.1875C82.9343 18.1875 82.9339 18.1875 82.9335 18.1875C82.9331 18.1875 82.9327 18.1875 82.9323 18.1875C82.9319 18.1875 82.9315 18.1875 82.9311 18.1875C82.9307 18.1875 82.9303 18.1875 82.9299 18.1875C82.9295 18.1875 82.9291 18.1875 82.9287 18.1875C82.9283 18.1875 82.9279 18.1875 82.9275 18.1875C82.9271 18.1875 82.9267 18.1875 82.9263 18.1875C82.9259 18.1875 82.9255 18.1875 82.9251 18.1875C82.9247 18.1875 82.9243 18.1875 82.9239 18.1875C82.9235 18.1875 82.9231 18.1875 82.9227 18.1875C82.9223 18.1875 82.9219 18.1875 82.9215 18.1875C82.9211 18.1875 82.9207 18.1875 82.9203 18.1875C82.9199 18.1875 82.9196 18.1875 82.9192 18.1875C82.9188 18.1875 82.9184 18.1875 82.918 18.1875C82.9176 18.1875 82.9172 18.1875 82.9168 18.1875C82.9164 18.1875 82.916 18.1875 82.9156 18.1875C82.9152 18.1875 82.9148 18.1875 82.9144 18.1875C82.914 18.1875 82.9136 18.1875 82.9132 18.1875C82.9128 18.1875 82.9124 18.1875 82.912 18.1875C82.9116 18.1875 82.9112 18.1875 82.9108 18.1875C82.9104 18.1875 82.91 18.1875 82.9096 18.1875C82.9092 18.1875 82.9088 18.1875 82.9084 18.1875C82.908 18.1875 82.9076 18.1875 82.9072 18.1875C82.9068 18.1875 82.9064 18.1875 82.906 18.1875C82.9056 18.1875 82.9052 18.1875 82.9048 18.1875C82.9044 18.1875 82.904 18.1875 82.9036 18.1875C82.9032 18.1875 82.9028 18.1875 82.9024 18.1875C82.902 18.1875 82.9016 18.1875 82.9012 18.1875C82.9008 18.1875 82.9004 18.1875 82.9 18.1875C82.8996 18.1875 82.8992 18.1875 82.8988 18.1875C82.8984 18.1875 82.898 18.1875 82.8976 18.1875C82.8972 18.1875 82.8968 18.1875 82.8964 18.1875C82.896 18.1875 82.8956 18.1875 82.8953 18.1875C82.8949 18.1875 82.8945 18.1875 82.8941 18.1875C82.8937 18.1875 82.8933 18.1875 82.8929 18.1875C82.8925 18.1875 82.8921 18.1875 82.8917 18.1875C82.8913 18.1875 82.8909 18.1875 82.8905 18.1875C82.8901 18.1875 82.8897 18.1875 82.8893 18.1875C82.8889 18.1875 82.8885 18.1875 82.8881 18.1875C82.8877 18.1875 82.8873 18.1875 82.8869 18.1875C82.8865 18.1875 82.8861 18.1875 82.8857 18.1875C82.8853 18.1875 82.8849 18.1875 82.8845 18.1875C82.8841 18.1875 82.8837 18.1875 82.8833 18.1875C82.8829 18.1875 82.8825 18.1875 82.8821 18.1875C82.8817 18.1875 82.8813 18.1875 82.8809 18.1875C82.8805 18.1875 82.8802 18.1875 82.8798 18.1875C82.8794 18.1875 82.879 18.1875 82.8786 18.1875C82.8782 18.1875 82.8778 18.1875 82.8774 18.1875C82.877 18.1875 82.8766 18.1875 82.8762 18.1875C82.8758 18.1875 82.8754 18.1875 82.875 18.1875V22.1875ZM83.5078 22.1875C84.2974 22.1875 85.0682 22.055 85.8085 21.7858L84.4415 18.0267C84.1505 18.1325 83.8432 18.1875 83.5078 18.1875V22.1875ZM85.7906 21.7922C86.5371 21.5288 87.221 21.1457 87.8231 20.6361L85.2394 17.5826C85.029 17.7606 84.7753 17.9087 84.4594 18.0203L85.7906 21.7922ZM87.8564 20.6074C88.4476 20.0844 88.9281 19.4674 89.281 18.7616L85.7033 16.9728C85.5875 17.2045 85.4274 17.4156 85.2061 17.6114L87.8564 20.6074ZM89.2694 18.7845C89.6786 17.9917 89.8672 17.1338 89.8672 16.25H85.8672C85.8672 16.5537 85.8058 16.7739 85.7149 16.9499L89.2694 18.7845ZM128.039 25.5781L129.979 26.0632L129.981 26.0578L128.039 25.5781ZM126.609 29.2812L124.85 28.3302L124.845 28.3395L124.84 28.3488L126.609 29.2812ZM124.359 32.4688L122.887 31.1152L122.886 31.1162L124.359 32.4688ZM121.383 34.9297L120.329 33.2296L120.318 33.2364L121.383 34.9297ZM117.797 36.5469L118.352 38.4682L118.363 38.4651L118.374 38.4619L117.797 36.5469ZM109.641 36.5703L109.094 38.4943L109.1 38.496L109.641 36.5703ZM106.078 35.0703L105.06 36.7917L105.069 36.797L105.078 36.8023L106.078 35.0703ZM103.055 32.7266L101.616 34.1162L101.628 34.1286L101.64 34.1408L103.055 32.7266ZM100.758 29.6797L99.0095 30.651L99.0175 30.6655L99.0258 30.6798L100.758 29.6797ZM99.2812 26.0703L97.3496 26.5886L97.3525 26.5995L97.3556 26.6104L99.2812 26.0703ZM99.2578 18.0781L101.197 18.5687L101.198 18.5632L99.2578 18.0781ZM100.664 14.375L98.9046 13.424L98.8996 13.4332L98.8947 13.4425L100.664 14.375ZM105.844 8.67969L104.762 6.99729L104.751 7.00447L105.844 8.67969ZM119.578 7.50781L118.871 9.37853L118.876 9.38047L119.578 7.50781ZM124.359 10.5312L122.945 11.9455L122.954 11.9539L122.962 11.9622L124.359 10.5312ZM127.43 15.2656L125.564 15.9867L125.568 15.9962L125.572 16.0057L127.43 15.2656ZM117.82 20.1172L115.901 20.679L115.909 20.7073L115.918 20.7354L117.82 20.1172ZM116.977 18.4297L115.377 19.6297L115.386 19.6419L115.395 19.654L116.977 18.4297ZM115.57 17.2344L114.578 18.9709L114.607 18.9875L114.637 19.0031L115.57 17.2344ZM110.203 18.2656L108.717 16.9277L108.714 16.9305L110.203 18.2656ZM109.266 19.8828L111.148 20.5585L111.151 20.551L111.153 20.5435L109.266 19.8828ZM111.445 26.8672L110.416 28.5822L110.427 28.5885L110.438 28.5947L111.445 26.8672ZM115.359 26.9375L116.234 28.736L116.244 28.7312L116.254 28.7264L115.359 26.9375ZM116.859 25.7656L118.392 27.0508L118.402 27.0389L118.412 27.0268L116.859 25.7656ZM126.531 21.4531C126.531 22.7197 126.385 23.9333 126.097 25.0984L129.981 26.0578C130.349 24.5667 130.531 23.0303 130.531 21.4531H126.531ZM126.099 25.0931C125.81 26.2481 125.393 27.3254 124.85 28.3302L128.369 30.2323C129.076 28.9246 129.612 27.5332 129.979 26.0632L126.099 25.0931ZM124.84 28.3488C124.312 29.3514 123.662 30.2725 122.887 31.1152L125.832 33.8223C126.838 32.7275 127.688 31.5236 128.379 30.2137L124.84 28.3488ZM122.886 31.1162C122.136 31.9337 121.285 32.6375 120.329 33.2297L122.436 36.6297C123.699 35.8469 124.833 34.91 125.833 33.8213L122.886 31.1162ZM120.318 33.2364C119.384 33.824 118.354 34.2904 117.22 34.6319L118.374 38.4619C119.834 38.0221 121.194 37.4104 122.447 36.623L120.318 33.2364ZM117.241 34.6256C116.138 34.9445 114.951 35.1094 113.672 35.1094V39.1094C115.299 39.1094 116.862 38.8992 118.352 38.4682L117.241 34.6256ZM113.672 35.1094C112.438 35.1094 111.276 34.952 110.181 34.6446L109.1 38.496C110.567 38.9074 112.093 39.1094 113.672 39.1094V35.1094ZM110.187 34.6464C109.076 34.3308 108.041 33.8943 107.078 33.3383L105.078 36.8023C106.334 37.5276 107.674 38.0911 109.094 38.4943L110.187 34.6464ZM107.096 33.3489C106.131 32.7776 105.256 32.0993 104.469 31.3123L101.64 34.1408C102.666 35.1663 103.807 36.0505 105.06 36.7917L107.096 33.3489ZM104.493 31.3369C103.716 30.5324 103.049 29.6475 102.49 28.6795L99.0258 30.6798C99.7481 31.9306 100.612 33.077 101.616 34.1162L104.493 31.3369ZM102.506 28.7084C101.959 27.7243 101.526 26.6664 101.207 25.5302L97.3556 26.6104C97.7556 28.0367 98.3062 29.3851 99.0095 30.651L102.506 28.7084ZM101.213 25.5521C100.917 24.4478 100.766 23.2866 100.766 22.0625H96.7656C96.7656 23.6197 96.9583 25.1303 97.3496 26.5886L101.213 25.5521ZM100.766 22.0625C100.766 20.8658 100.91 19.7026 101.197 18.5687L97.3189 17.5876C96.9495 19.0474 96.7656 20.5404 96.7656 22.0625H100.766ZM101.198 18.5632C101.489 17.4007 101.901 16.3171 102.433 15.3075L98.8947 13.4425C98.2081 14.7454 97.6831 16.1306 97.3175 17.5931L101.198 18.5632ZM102.423 15.326C102.973 14.3092 103.631 13.3776 104.398 12.5281L101.43 9.84693C100.447 10.9349 99.605 12.1283 98.9046 13.424L102.423 15.326ZM104.398 12.5281C105.159 11.6855 106.005 10.9625 106.936 10.3549L104.751 7.00447C103.527 7.80313 102.419 8.75204 101.43 9.84693L104.398 12.5281ZM106.925 10.362C107.863 9.75895 108.877 9.28819 109.973 8.95011L108.793 5.12802C107.357 5.57119 106.012 6.19417 104.762 6.99733L106.925 10.362ZM109.973 8.95011C111.036 8.62199 112.172 8.45312 113.391 8.45312V4.45312C111.797 4.45312 110.261 4.67489 108.793 5.12802L109.973 8.95011ZM113.391 8.45312C115.448 8.45312 117.267 8.77195 118.871 9.37853L120.286 5.6371C118.171 4.83742 115.865 4.45312 113.391 4.45312V8.45312ZM118.876 9.38047C120.505 9.99137 121.85 10.8504 122.945 11.9455L125.774 9.11704C124.244 7.58711 122.401 6.43051 120.28 5.63515L118.876 9.38047ZM122.962 11.9622C124.07 13.0442 124.941 14.3747 125.564 15.9867L129.295 14.5445C128.481 12.4378 127.305 10.612 125.757 9.1003L122.962 11.9622ZM125.572 16.0057C126.199 17.5815 126.531 19.3879 126.531 21.4531H130.531C130.531 18.9559 130.129 16.6372 129.288 14.5256L125.572 16.0057ZM120.125 22.0625C120.125 21.1855 119.992 20.3281 119.722 19.499L115.918 20.7354C116.055 21.1562 116.125 21.5958 116.125 22.0625H120.125ZM119.74 19.5554C119.488 18.6963 119.099 17.9045 118.558 17.2053L115.395 19.654C115.604 19.9236 115.777 20.2568 115.901 20.679L119.74 19.5554ZM118.577 17.2297C118.021 16.4889 117.323 15.898 116.504 15.4656L114.637 19.0031C114.943 19.1645 115.182 19.3705 115.377 19.6297L118.577 17.2297ZM116.563 15.4979C115.673 14.9895 114.689 14.7656 113.672 14.7656V18.7656C114.092 18.7656 114.374 18.8542 114.578 18.9709L116.563 15.4979ZM113.672 14.7656C112.694 14.7656 111.746 14.9435 110.868 15.3467L112.538 18.9814C112.817 18.8533 113.181 18.7656 113.672 18.7656V14.7656ZM110.868 15.3467C110.045 15.7251 109.322 16.2546 108.717 16.9277L111.69 19.6036C111.928 19.3392 112.205 19.1343 112.538 18.9814L110.868 15.3467ZM108.714 16.9305C108.117 17.5967 107.676 18.3703 107.378 19.2221L111.153 20.5435C111.293 20.1453 111.477 19.8408 111.692 19.6007L108.714 16.9305ZM107.383 19.2071C107.082 20.0464 106.937 20.9246 106.937 21.8281H110.937C110.937 21.3566 111.012 20.938 111.148 20.5585L107.383 19.2071ZM106.937 21.8281C106.937 22.6775 107.059 23.5186 107.296 24.3463L111.142 23.2474C111.003 22.7627 110.937 22.2912 110.937 21.8281H106.937ZM107.296 24.3463C107.542 25.2079 107.918 26.0076 108.429 26.7315L111.696 24.4248C111.457 24.0861 111.271 23.6984 111.142 23.2474L107.296 24.3463ZM108.429 26.7315C108.961 27.4854 109.626 28.1081 110.416 28.5822L112.474 25.1522C112.171 24.97 111.914 24.7334 111.696 24.4248L108.429 26.7315ZM110.438 28.5947C111.343 29.1232 112.348 29.3594 113.391 29.3594V25.3594C112.964 25.3594 112.672 25.2674 112.453 25.1396L110.438 28.5947ZM113.391 29.3594C114.385 29.3594 115.347 29.1675 116.234 28.736L114.484 25.139C114.215 25.27 113.865 25.3594 113.391 25.3594V29.3594ZM116.254 28.7264C117.08 28.3133 117.801 27.7554 118.392 27.0508L115.327 24.4804C115.105 24.7446 114.826 24.968 114.465 25.1486L116.254 28.7264ZM118.412 27.0268C118.974 26.3344 119.398 25.5536 119.69 24.701L115.904 23.4084C115.758 23.837 115.557 24.1969 115.307 24.5044L118.412 27.0268ZM119.69 24.701C119.98 23.849 120.125 22.9664 120.125 22.0625H116.125C116.125 22.5336 116.051 22.9791 115.904 23.4084L119.69 24.701Z" fill="black" mask="url(#path-3-outside-2_2005_4)"/>
</svg>
