<svg width="71" height="19" viewBox="0 0 71 19" fill="none" xmlns="http://www.w3.org/2000/svg">
<mask id="path-1-outside-1_2002_297" maskUnits="userSpaceOnUse" x="12" y="4" width="9" height="9" fill="black">
<rect fill="white" x="12" y="4" width="9" height="9"/>
<path d="M19.7567 8.07227C19.7567 8.48698 19.6763 8.8763 19.5155 9.24023C19.3631 9.60417 19.1515 9.92155 18.8807 10.1924C18.6099 10.4632 18.2925 10.679 17.9286 10.8398C17.5646 10.9922 17.1753 11.0684 16.7606 11.0684C16.3543 11.0684 15.9693 10.9922 15.6053 10.8398C15.2499 10.679 14.9367 10.4632 14.6659 10.1924C14.395 9.92155 14.1792 9.60417 14.0184 9.24023C13.8661 8.8763 13.7899 8.48698 13.7899 8.07227C13.7899 7.65755 13.8661 7.26823 14.0184 6.9043C14.1792 6.54036 14.395 6.22298 14.6659 5.95215C14.9367 5.68132 15.2499 5.46973 15.6053 5.31738C15.9693 5.15658 16.3543 5.07617 16.7606 5.07617C17.1753 5.07617 17.5646 5.15658 17.9286 5.31738C18.2925 5.46973 18.6099 5.68132 18.8807 5.95215C19.1515 6.22298 19.3631 6.54036 19.5155 6.9043C19.6763 7.26823 19.7567 7.65755 19.7567 8.07227Z"/>
</mask>
<path d="M19.7567 8.07227C19.7567 8.48698 19.6763 8.8763 19.5155 9.24023C19.3631 9.60417 19.1515 9.92155 18.8807 10.1924C18.6099 10.4632 18.2925 10.679 17.9286 10.8398C17.5646 10.9922 17.1753 11.0684 16.7606 11.0684C16.3543 11.0684 15.9693 10.9922 15.6053 10.8398C15.2499 10.679 14.9367 10.4632 14.6659 10.1924C14.395 9.92155 14.1792 9.60417 14.0184 9.24023C13.8661 8.8763 13.7899 8.48698 13.7899 8.07227C13.7899 7.65755 13.8661 7.26823 14.0184 6.9043C14.1792 6.54036 14.395 6.22298 14.6659 5.95215C14.9367 5.68132 15.2499 5.46973 15.6053 5.31738C15.9693 5.15658 16.3543 5.07617 16.7606 5.07617C17.1753 5.07617 17.5646 5.15658 17.9286 5.31738C18.2925 5.46973 18.6099 5.68132 18.8807 5.95215C19.1515 6.22298 19.3631 6.54036 19.5155 6.9043C19.6763 7.26823 19.7567 7.65755 19.7567 8.07227Z" fill="white"/>
<path d="M19.5155 9.24023L18.6008 8.83607L18.5968 8.84505L18.593 8.8541L19.5155 9.24023ZM17.9286 10.8398L18.3147 11.7623L18.3238 11.7585L18.3327 11.7545L17.9286 10.8398ZM15.6053 10.8398L15.1932 11.751L15.2061 11.7568L15.2192 11.7623L15.6053 10.8398ZM14.0184 9.24023L13.096 9.62637L13.0998 9.63542L13.1037 9.6444L14.0184 9.24023ZM14.0184 6.9043L13.1037 6.50013L13.0998 6.50911L13.096 6.51816L14.0184 6.9043ZM15.6053 5.31738L15.9993 6.23659L16.0095 6.23207L15.6053 5.31738ZM17.9286 5.31738L17.5244 6.23207L17.5334 6.23603L17.5424 6.23982L17.9286 5.31738ZM19.5155 6.9043L18.593 7.29043L18.5968 7.29949L18.6008 7.30846L19.5155 6.9043ZM18.7567 8.07227C18.7567 8.35381 18.703 8.60485 18.6008 8.83607L20.4302 9.6444C20.6496 9.14775 20.7567 8.62015 20.7567 8.07227H18.7567ZM18.593 8.8541C18.4894 9.10174 18.3497 9.30919 18.1736 9.48528L19.5878 10.8995C19.9534 10.5339 20.2369 10.1066 20.4379 9.62637L18.593 8.8541ZM18.1736 9.48528C17.9934 9.66543 17.7799 9.81228 17.5244 9.92516L18.3327 11.7545C18.8051 11.5458 19.2263 11.261 19.5878 10.8995L18.1736 9.48528ZM17.5424 9.9174C17.307 10.016 17.0496 10.0684 16.7606 10.0684V12.0684C17.301 12.0684 17.8223 11.9684 18.3147 11.7623L17.5424 9.9174ZM16.7606 10.0684C16.4829 10.0684 16.2294 10.017 15.9915 9.9174L15.2192 11.7623C15.7091 11.9674 16.2258 12.0684 16.7606 12.0684V10.0684ZM16.0175 9.92874C15.7697 9.81666 15.557 9.66929 15.373 9.48528L13.9588 10.8995C14.3164 11.2571 14.73 11.5414 15.1932 11.751L16.0175 9.92874ZM15.373 9.48528C15.1928 9.30512 15.046 9.09153 14.9331 8.83607L13.1037 9.6444C13.3125 10.1168 13.5972 10.538 13.9588 10.8995L15.373 9.48528ZM14.9408 8.8541C14.8423 8.61867 14.7899 8.36129 14.7899 8.07227H12.7899C12.7899 8.61266 12.8898 9.13394 13.096 9.62637L14.9408 8.8541ZM14.7899 8.07227C14.7899 7.78324 14.8423 7.52586 14.9408 7.29043L13.096 6.51816C12.8898 7.0106 12.7899 7.53187 12.7899 8.07227H14.7899ZM14.9331 7.30846C15.046 7.05301 15.1928 6.83941 15.373 6.65926L13.9588 5.24504C13.5972 5.60655 13.3125 6.02772 13.1037 6.50013L14.9331 7.30846ZM15.373 6.65926C15.553 6.47927 15.7595 6.33926 15.9992 6.23653L15.2114 4.39824C14.7402 4.6002 14.3204 4.88336 13.9588 5.24504L15.373 6.65926ZM16.0095 6.23207C16.2434 6.12872 16.4905 6.07617 16.7606 6.07617V4.07617C16.2182 4.07617 15.6951 4.18443 15.2012 4.4027L16.0095 6.23207ZM16.7606 6.07617C17.0421 6.07617 17.2932 6.1299 17.5244 6.23207L18.3327 4.4027C17.8361 4.18325 17.3085 4.07617 16.7606 4.07617V6.07617ZM17.5424 6.23982C17.7901 6.34349 17.9975 6.48317 18.1736 6.65926L19.5878 5.24504C19.2222 4.87946 18.7949 4.59597 18.3147 4.39494L17.5424 6.23982ZM18.1736 6.65926C18.3497 6.83534 18.4894 7.04279 18.593 7.29043L20.4379 6.51816C20.2369 6.03794 19.9534 5.61063 19.5878 5.24504L18.1736 6.65926ZM18.6008 7.30846C18.703 7.53968 18.7567 7.79072 18.7567 8.07227H20.7567C20.7567 7.52438 20.6496 6.99678 20.4302 6.50013L18.6008 7.30846Z" fill="black" mask="url(#path-1-outside-1_2002_297)"/>
<mask id="path-3-outside-2_2002_297" maskUnits="userSpaceOnUse" x="48.9873" y="4.00002" width="9" height="9" fill="black">
<rect fill="white" x="48.9873" y="4.00002" width="9" height="9"/>
<path d="M56.744 8.07228C56.744 8.48699 56.6636 8.87632 56.5028 9.24025C56.3504 9.60418 56.1388 9.92156 55.868 10.1924C55.5972 10.4632 55.2798 10.6791 54.9159 10.8399C54.5519 10.9922 54.1626 11.0684 53.7479 11.0684C53.3416 11.0684 52.9566 10.9922 52.5926 10.8399C52.2372 10.6791 51.924 10.4632 51.6532 10.1924C51.3823 9.92156 51.1665 9.60418 51.0057 9.24025C50.8534 8.87632 50.7772 8.48699 50.7772 8.07228C50.7772 7.65757 50.8534 7.26824 51.0057 6.90431C51.1665 6.54038 51.3823 6.223 51.6532 5.95216C51.924 5.68133 52.2372 5.46974 52.5926 5.3174C52.9566 5.15659 53.3416 5.07619 53.7479 5.07619C54.1626 5.07619 54.5519 5.15659 54.9159 5.3174C55.2798 5.46974 55.5972 5.68133 55.868 5.95216C56.1388 6.223 56.3504 6.54038 56.5028 6.90431C56.6636 7.26824 56.744 7.65757 56.744 8.07228Z"/>
</mask>
<path d="M56.744 8.07228C56.744 8.48699 56.6636 8.87632 56.5028 9.24025C56.3504 9.60418 56.1388 9.92156 55.868 10.1924C55.5972 10.4632 55.2798 10.6791 54.9159 10.8399C54.5519 10.9922 54.1626 11.0684 53.7479 11.0684C53.3416 11.0684 52.9566 10.9922 52.5926 10.8399C52.2372 10.6791 51.924 10.4632 51.6532 10.1924C51.3823 9.92156 51.1665 9.60418 51.0057 9.24025C50.8534 8.87632 50.7772 8.48699 50.7772 8.07228C50.7772 7.65757 50.8534 7.26824 51.0057 6.90431C51.1665 6.54038 51.3823 6.223 51.6532 5.95216C51.924 5.68133 52.2372 5.46974 52.5926 5.3174C52.9566 5.15659 53.3416 5.07619 53.7479 5.07619C54.1626 5.07619 54.5519 5.15659 54.9159 5.3174C55.2798 5.46974 55.5972 5.68133 55.868 5.95216C56.1388 6.223 56.3504 6.54038 56.5028 6.90431C56.6636 7.26824 56.744 7.65757 56.744 8.07228Z" fill="#CE0003"/>
<path d="M56.5028 9.24025L55.5881 8.83609L55.5841 8.84506L55.5803 8.85411L56.5028 9.24025ZM54.9159 10.8399L55.302 11.7623L55.3111 11.7585L55.32 11.7545L54.9159 10.8399ZM52.5926 10.8399L52.1805 11.751L52.1934 11.7568L52.2065 11.7623L52.5926 10.8399ZM51.0057 9.24025L50.0833 9.62639L50.0871 9.63544L50.091 9.64441L51.0057 9.24025ZM51.0057 6.90431L50.091 6.50015L50.0871 6.50912L50.0833 6.51817L51.0057 6.90431ZM52.5926 5.3174L52.9866 6.2366L52.9968 6.23208L52.5926 5.3174ZM54.9159 5.3174L54.5117 6.23208L54.5207 6.23605L54.5297 6.23984L54.9159 5.3174ZM56.5028 6.90431L55.5803 7.29045L55.5841 7.2995L55.5881 7.30848L56.5028 6.90431ZM55.744 8.07228C55.744 8.35383 55.6903 8.60486 55.5881 8.83609L57.4175 9.64441C57.6369 9.14777 57.744 8.62016 57.744 8.07228H55.744ZM55.5803 8.85411C55.4767 9.10175 55.337 9.30921 55.1609 9.48529L56.5751 10.8995C56.9407 10.5339 57.2242 10.1066 57.4252 9.62639L55.5803 8.85411ZM55.1609 9.48529C54.9808 9.66545 54.7672 9.8123 54.5117 9.92517L55.32 11.7545C55.7924 11.5458 56.2136 11.261 56.5751 10.8995L55.1609 9.48529ZM54.5297 9.91742C54.2943 10.016 54.0369 10.0684 53.7479 10.0684V12.0684C54.2883 12.0684 54.8096 11.9684 55.302 11.7623L54.5297 9.91742ZM53.7479 10.0684C53.4702 10.0684 53.2167 10.017 52.9788 9.91742L52.2065 11.7623C52.6964 11.9674 53.2131 12.0684 53.7479 12.0684V10.0684ZM53.0048 9.92875C52.757 9.81667 52.5443 9.6693 52.3603 9.48529L50.9461 10.8995C51.3037 11.2572 51.7173 11.5414 52.1805 11.751L53.0048 9.92875ZM52.3603 9.48529C52.1801 9.30514 52.0333 9.09154 51.9204 8.83609L50.091 9.64441C50.2998 10.1168 50.5846 10.538 50.9461 10.8995L52.3603 9.48529ZM51.9282 8.85411C51.8296 8.61868 51.7772 8.36131 51.7772 8.07228H49.7772C49.7772 8.61268 49.8771 9.13395 50.0833 9.62639L51.9282 8.85411ZM51.7772 8.07228C51.7772 7.78325 51.8296 7.52588 51.9282 7.29045L50.0833 6.51817C49.8771 7.01061 49.7772 7.53188 49.7772 8.07228H51.7772ZM51.9204 7.30848C52.0333 7.05302 52.1801 6.83943 52.3603 6.65927L50.9461 5.24506C50.5846 5.60657 50.2998 6.02774 50.091 6.50015L51.9204 7.30848ZM52.3603 6.65927C52.5403 6.47929 52.7468 6.33927 52.9865 6.23654L52.1987 4.39825C51.7275 4.60021 51.3077 4.88337 50.9461 5.24506L52.3603 6.65927ZM52.9968 6.23208C53.2307 6.12874 53.4778 6.07619 53.7479 6.07619V4.07619C53.2055 4.07619 52.6824 4.18444 52.1885 4.40271L52.9968 6.23208ZM53.7479 6.07619C54.0294 6.07619 54.2805 6.12992 54.5117 6.23208L55.32 4.40271C54.8234 4.18326 54.2958 4.07619 53.7479 4.07619V6.07619ZM54.5297 6.23984C54.7774 6.3435 54.9848 6.48319 55.1609 6.65927L56.5751 5.24506C56.2095 4.87947 55.7822 4.59598 55.302 4.39496L54.5297 6.23984ZM55.1609 6.65927C55.337 6.83535 55.4767 7.04281 55.5803 7.29045L57.4252 6.51817C57.2242 6.03795 56.9407 5.61064 56.5751 5.24506L55.1609 6.65927ZM55.5881 7.30848C55.6903 7.5397 55.744 7.79074 55.744 8.07228H57.744C57.744 7.5244 57.6369 6.99679 57.4175 6.50015L55.5881 7.30848Z" fill="black" mask="url(#path-3-outside-2_2002_297)"/>
</svg>
