<svg width="20" height="19" viewBox="0 0 20 19" fill="none" xmlns="http://www.w3.org/2000/svg">
<rect x="0.5" y="0.5" width="19" height="17.1764" rx="2.5" fill="#D9D9D9" fill-opacity="0.5" stroke="black"/>
<mask id="path-2-outside-1_2002_192" maskUnits="userSpaceOnUse" x="4.59998" y="2.42645" width="11" height="14" fill="black">
<rect fill="white" x="4.59998" y="2.42645" width="11" height="14"/>
<path d="M10.5583 11.57H8.0827C8.04852 11.0524 8.07782 10.6203 8.17059 10.2736C8.26337 9.92206 8.38788 9.63153 8.54413 9.40204C8.70526 9.16766 8.88348 8.97968 9.0788 8.83807C9.27899 8.69159 9.47186 8.56708 9.65741 8.46454C9.84784 8.35712 10.0139 8.25458 10.1555 8.15692C10.3019 8.05927 10.402 7.93719 10.4557 7.79071C10.4899 7.70282 10.4997 7.60272 10.485 7.49042C10.4704 7.37323 10.4191 7.26337 10.3312 7.16083C10.2482 7.05829 10.1213 6.97284 9.95038 6.90448C9.78436 6.83124 9.56708 6.79462 9.29852 6.79462C9.12274 6.79462 8.91278 6.81171 8.66864 6.84589C8.42938 6.87518 8.17792 6.92401 7.91425 6.99237C7.65057 7.05585 7.38934 7.13641 7.13055 7.23407C6.87665 7.32684 6.64716 7.43427 6.44208 7.55634L6.11981 4.68524C6.30048 4.57782 6.50311 4.46796 6.72772 4.35565C6.95721 4.23846 7.20868 4.13593 7.48212 4.04803C7.75555 3.95526 8.05341 3.87958 8.37567 3.82098C8.69794 3.76239 9.04462 3.73309 9.41571 3.73309C10.0163 3.73309 10.5827 3.8161 11.1149 3.98212C11.652 4.14813 12.1208 4.39227 12.5212 4.71454C12.9216 5.0368 13.239 5.43475 13.4733 5.90839C13.7077 6.37714 13.8249 6.91669 13.8249 7.52704C13.8249 7.99091 13.759 8.36444 13.6271 8.64764C13.4953 8.92596 13.3268 9.15546 13.1218 9.33612C12.9167 9.51678 12.6872 9.66815 12.4333 9.79022C12.1794 9.91229 11.9304 10.0466 11.6862 10.1931C11.447 10.3347 11.2248 10.5104 11.0197 10.7204C10.8195 10.9304 10.6657 11.2136 10.5583 11.57ZM10.9245 13.5036C10.9245 13.7184 10.883 13.9186 10.8 14.1042C10.717 14.2897 10.6047 14.4509 10.4631 14.5876C10.3264 14.7292 10.1652 14.8391 9.97967 14.9172C9.79413 15.0002 9.59637 15.0417 9.38641 15.0417C9.17157 15.0417 8.97137 15.0002 8.78583 14.9172C8.60028 14.8391 8.43671 14.7292 8.2951 14.5876C8.15839 14.4509 8.04852 14.2897 7.96551 14.1042C7.88739 13.9186 7.84833 13.7184 7.84833 13.5036C7.84833 13.2936 7.88739 13.0934 7.96551 12.903C8.04852 12.7126 8.15839 12.549 8.2951 12.4123C8.43671 12.2707 8.60028 12.1584 8.78583 12.0754C8.97137 11.9924 9.17157 11.9509 9.38641 11.9509C9.59637 11.9509 9.79413 11.9924 9.97967 12.0754C10.1652 12.1584 10.3264 12.2707 10.4631 12.4123C10.6047 12.549 10.717 12.7126 10.8 12.903C10.883 13.0934 10.9245 13.2936 10.9245 13.5036Z"/>
</mask>
<path d="M10.5583 11.57H8.0827C8.04852 11.0524 8.07782 10.6203 8.17059 10.2736C8.26337 9.92206 8.38788 9.63153 8.54413 9.40204C8.70526 9.16766 8.88348 8.97968 9.0788 8.83807C9.27899 8.69159 9.47186 8.56708 9.65741 8.46454C9.84784 8.35712 10.0139 8.25458 10.1555 8.15692C10.3019 8.05927 10.402 7.93719 10.4557 7.79071C10.4899 7.70282 10.4997 7.60272 10.485 7.49042C10.4704 7.37323 10.4191 7.26337 10.3312 7.16083C10.2482 7.05829 10.1213 6.97284 9.95038 6.90448C9.78436 6.83124 9.56708 6.79462 9.29852 6.79462C9.12274 6.79462 8.91278 6.81171 8.66864 6.84589C8.42938 6.87518 8.17792 6.92401 7.91425 6.99237C7.65057 7.05585 7.38934 7.13641 7.13055 7.23407C6.87665 7.32684 6.64716 7.43427 6.44208 7.55634L6.11981 4.68524C6.30048 4.57782 6.50311 4.46796 6.72772 4.35565C6.95721 4.23846 7.20868 4.13593 7.48212 4.04803C7.75555 3.95526 8.05341 3.87958 8.37567 3.82098C8.69794 3.76239 9.04462 3.73309 9.41571 3.73309C10.0163 3.73309 10.5827 3.8161 11.1149 3.98212C11.652 4.14813 12.1208 4.39227 12.5212 4.71454C12.9216 5.0368 13.239 5.43475 13.4733 5.90839C13.7077 6.37714 13.8249 6.91669 13.8249 7.52704C13.8249 7.99091 13.759 8.36444 13.6271 8.64764C13.4953 8.92596 13.3268 9.15546 13.1218 9.33612C12.9167 9.51678 12.6872 9.66815 12.4333 9.79022C12.1794 9.91229 11.9304 10.0466 11.6862 10.1931C11.447 10.3347 11.2248 10.5104 11.0197 10.7204C10.8195 10.9304 10.6657 11.2136 10.5583 11.57ZM10.9245 13.5036C10.9245 13.7184 10.883 13.9186 10.8 14.1042C10.717 14.2897 10.6047 14.4509 10.4631 14.5876C10.3264 14.7292 10.1652 14.8391 9.97967 14.9172C9.79413 15.0002 9.59637 15.0417 9.38641 15.0417C9.17157 15.0417 8.97137 15.0002 8.78583 14.9172C8.60028 14.8391 8.43671 14.7292 8.2951 14.5876C8.15839 14.4509 8.04852 14.2897 7.96551 14.1042C7.88739 13.9186 7.84833 13.7184 7.84833 13.5036C7.84833 13.2936 7.88739 13.0934 7.96551 12.903C8.04852 12.7126 8.15839 12.549 8.2951 12.4123C8.43671 12.2707 8.60028 12.1584 8.78583 12.0754C8.97137 11.9924 9.17157 11.9509 9.38641 11.9509C9.59637 11.9509 9.79413 11.9924 9.97967 12.0754C10.1652 12.1584 10.3264 12.2707 10.4631 12.4123C10.6047 12.549 10.717 12.7126 10.8 12.903C10.883 13.0934 10.9245 13.2936 10.9245 13.5036Z" fill="#CE0003"/>
<path d="M10.5583 11.57V12.57H11.3013L11.5158 11.8586L10.5583 11.57ZM8.0827 11.57L7.08488 11.6359L7.14656 12.57H8.0827V11.57ZM8.17059 10.2736L9.13661 10.5321L9.13749 10.5288L8.17059 10.2736ZM8.54413 9.40204L7.72008 8.8355L7.71753 8.83925L8.54413 9.40204ZM9.0788 8.83807L9.66577 9.64769L9.66931 9.6451L9.0788 8.83807ZM9.65741 8.46454L10.1411 9.33981L10.1487 9.33552L9.65741 8.46454ZM10.1555 8.15692L9.60076 7.32487L9.5942 7.32924L9.58772 7.33371L10.1555 8.15692ZM10.4557 7.79071L9.52374 7.42826L9.52022 7.43733L9.51687 7.44646L10.4557 7.79071ZM10.485 7.49042L9.49275 7.61445L9.49345 7.61976L10.485 7.49042ZM10.3312 7.16083L9.55399 7.79003L9.56283 7.80095L9.57198 7.81162L10.3312 7.16083ZM9.95038 6.90448L9.54674 7.8194L9.56274 7.82646L9.57899 7.83296L9.95038 6.90448ZM8.66864 6.84589L8.79018 7.83847L8.79874 7.83742L8.80729 7.83623L8.66864 6.84589ZM7.91425 6.99237L8.1483 7.96459L8.15677 7.96255L8.16521 7.96037L7.91425 6.99237ZM7.13055 7.23407L7.47377 8.17339L7.48361 8.16967L7.13055 7.23407ZM6.44208 7.55634L5.44832 7.66788L5.62126 9.20866L6.95356 8.41563L6.44208 7.55634ZM6.11981 4.68524L5.60874 3.82571L5.05407 4.15551L5.12605 4.79679L6.11981 4.68524ZM6.72772 4.35565L7.17495 5.25011L7.1825 5.24626L6.72772 4.35565ZM7.48212 4.04803L7.78813 5.00006L7.79579 4.9976L7.80341 4.99501L7.48212 4.04803ZM11.1149 3.98212L10.8172 4.93676L10.8196 4.93752L11.1149 3.98212ZM13.4733 5.90839L12.5771 6.3519L12.5789 6.3556L13.4733 5.90839ZM13.6271 8.64764L14.5309 9.07574L14.5337 9.06967L13.6271 8.64764ZM11.6862 10.1931L12.1955 11.0536L12.2007 11.0505L11.6862 10.1931ZM11.0197 10.7204L10.3043 10.0216L10.296 10.0303L11.0197 10.7204ZM10.8 14.1042L11.7128 14.5126L10.8 14.1042ZM10.4631 14.5876L9.76848 13.8682L9.75586 13.8804L9.74367 13.893L10.4631 14.5876ZM9.97967 14.9172L9.59162 13.9955L9.58141 13.9998L9.57131 14.0044L9.97967 14.9172ZM8.78583 14.9172L9.19419 14.0044L9.18409 13.9998L9.17388 13.9955L8.78583 14.9172ZM7.96551 14.1042L7.04388 14.4922L7.04818 14.5024L7.0527 14.5126L7.96551 14.1042ZM7.96551 12.903L7.04882 12.5034L7.04447 12.5134L7.04035 12.5235L7.96551 12.903ZM8.2951 12.4123L7.588 11.7052L8.2951 12.4123ZM9.97967 12.0754L10.388 11.1626L9.97967 12.0754ZM10.4631 12.4123L9.74367 13.1069L9.75586 13.1195L9.76848 13.1317L10.4631 12.4123ZM10.5583 10.57H8.0827V12.57H10.5583V10.57ZM9.08053 11.5041C9.05064 11.0514 9.08165 10.7375 9.1366 10.5321L7.20458 10.0151C7.07398 10.5031 7.04641 11.0534 7.08488 11.6359L9.08053 11.5041ZM9.13749 10.5288C9.20977 10.2549 9.2947 10.0765 9.37073 9.96483L7.71753 8.83925C7.48106 9.18656 7.31696 9.58922 7.20369 10.0185L9.13749 10.5288ZM9.36817 9.96857C9.476 9.81172 9.57762 9.71159 9.66576 9.64768L8.49183 8.02846C8.18935 8.24776 7.93452 8.52361 7.72009 8.83551L9.36817 9.96857ZM9.66931 9.6451C9.84095 9.51951 9.99816 9.41877 10.1411 9.33978L9.17372 7.5893C8.94557 7.71538 8.71703 7.86367 8.48829 8.03104L9.66931 9.6451ZM10.1487 9.33552C10.3587 9.21707 10.5513 9.09869 10.7232 8.98013L9.58772 7.33371C9.47642 7.41047 9.33697 7.49716 9.16609 7.59356L10.1487 9.33552ZM10.7102 8.98897C11.0095 8.78939 11.2586 8.50585 11.3946 8.13497L9.51687 7.44646C9.52905 7.41324 9.54698 7.38262 9.56712 7.35805C9.5865 7.33442 9.60112 7.32463 9.60076 7.32487L10.7102 8.98897ZM11.3878 8.15316C11.4938 7.88036 11.5086 7.60641 11.4766 7.36108L9.49345 7.61976C9.49074 7.59903 9.48602 7.52528 9.52374 7.42826L11.3878 8.15316ZM11.4773 7.36638C11.435 7.02767 11.2872 6.73951 11.0905 6.51004L9.57198 7.81162C9.56346 7.80168 9.54627 7.77912 9.52942 7.74301C9.51214 7.70597 9.49872 7.6621 9.49277 7.61445L11.4773 7.36638ZM11.1085 6.53163C10.8838 6.2541 10.5918 6.08402 10.3218 5.976L9.57899 7.83296C9.61154 7.84598 9.62096 7.85317 9.61539 7.84942C9.60924 7.84528 9.58415 7.82728 9.55399 7.79003L11.1085 6.53163ZM10.354 5.98956C10.0149 5.83996 9.64515 5.79462 9.29852 5.79462V7.79462C9.38869 7.79462 9.45333 7.80086 9.49671 7.80818C9.54035 7.81553 9.55376 7.8225 9.54674 7.8194L10.354 5.98956ZM9.29852 5.79462C9.06207 5.79462 8.80333 5.81728 8.52999 5.85554L8.80729 7.83623C9.02223 7.80614 9.18341 7.79462 9.29852 7.79462V5.79462ZM8.5471 5.8533C8.25902 5.88857 7.96414 5.94637 7.66328 6.02437L8.16521 7.96037C8.3917 7.90165 8.59974 7.86179 8.79018 7.83847L8.5471 5.8533ZM7.68019 6.02015C7.37534 6.09354 7.07438 6.18644 6.7775 6.29847L7.48361 8.16967C7.7043 8.08639 7.92581 8.01816 8.1483 7.96459L7.68019 6.02015ZM6.78736 6.2948C6.48254 6.40618 6.19565 6.53927 5.93059 6.69704L6.95356 8.41563C7.09866 8.32926 7.27075 8.24751 7.47375 8.17333L6.78736 6.2948ZM7.43584 7.44479L7.11357 4.5737L5.12605 4.79679L5.44832 7.66788L7.43584 7.44479ZM6.63089 5.54478C6.78715 5.45186 6.968 5.35355 7.17494 5.25008L6.28051 3.46122C6.03822 3.58237 5.8138 3.70378 5.60874 3.82571L6.63089 5.54478ZM7.1825 5.24626C7.35906 5.1561 7.56012 5.07335 7.78813 5.00006L7.17611 3.09601C6.85723 3.1985 6.55537 3.32083 6.27294 3.46505L7.1825 5.24626ZM7.80341 4.99501C8.02466 4.91995 8.2743 4.85581 8.55456 4.80485L8.19679 2.83711C7.83251 2.90335 7.48645 2.99057 7.16082 3.10106L7.80341 4.99501ZM8.55456 4.80485C8.81063 4.7583 9.09685 4.73309 9.41571 4.73309V2.73309C8.99238 2.73309 8.58525 2.76648 8.19679 2.83711L8.55456 4.80485ZM9.41571 4.73309C9.9231 4.73309 10.3885 4.80304 10.8172 4.93675L11.4127 3.02748C10.7769 2.82916 10.1095 2.73309 9.41571 2.73309V4.73309ZM10.8196 4.93752C11.2474 5.06973 11.6011 5.25764 11.8942 5.49355L13.1482 3.93553C12.6405 3.52691 12.0567 3.22653 11.4102 3.02671L10.8196 4.93752ZM11.8942 5.49355C12.1783 5.72224 12.4052 6.00454 12.5771 6.3519L14.3696 5.46487C14.0727 4.86497 13.6648 4.35137 13.1482 3.93553L11.8942 5.49355ZM12.5789 6.3556C12.7333 6.66434 12.8249 7.04641 12.8249 7.52704H14.8249C14.8249 6.78697 14.6821 6.08994 14.3678 5.46117L12.5789 6.3556ZM12.8249 7.52704C12.8249 7.90978 12.7684 8.12281 12.7206 8.22561L14.5337 9.06967C14.7495 8.60607 14.8249 8.07203 14.8249 7.52704H12.8249ZM12.7234 8.21956C12.6424 8.39064 12.5517 8.50564 12.4607 8.58576L13.7828 10.0865C14.102 9.80528 14.3482 9.46129 14.5309 9.07573L12.7234 8.21956ZM12.4607 8.58576C12.3264 8.7041 12.174 8.80531 12 8.88897L12.8666 10.6915C13.2004 10.531 13.507 10.3295 13.7828 10.0865L12.4607 8.58576ZM12 8.88897C11.7181 9.02451 11.442 9.17342 11.1717 9.33556L12.2007 11.0505C12.4188 10.9197 12.6407 10.8001 12.8666 10.6915L12 8.88897ZM11.1769 9.33248C10.8581 9.52117 10.5673 9.75244 10.3043 10.0217L11.7351 11.4191C11.8823 11.2684 12.0359 11.1481 12.1955 11.0536L11.1769 9.33248ZM10.296 10.0303C9.96115 10.3815 9.74111 10.816 9.60082 11.2815L11.5158 11.8586C11.5903 11.6112 11.6779 11.4792 11.7435 11.4105L10.296 10.0303ZM9.9245 13.5036C9.9245 13.5859 9.90946 13.646 9.88717 13.6958L11.7128 14.5126C11.8565 14.1913 11.9245 13.851 11.9245 13.5036H9.9245ZM9.88717 13.6958C9.85462 13.7686 9.81511 13.8232 9.76848 13.8682L11.1577 15.307C11.3942 15.0786 11.5793 14.8109 11.7128 14.5126L9.88717 13.6958ZM9.74367 13.893C9.70308 13.935 9.65541 13.9687 9.59162 13.9955L10.3677 15.8388C10.675 15.7094 10.9496 15.5233 11.1825 15.2822L9.74367 13.893ZM9.57131 14.0044C9.5185 14.028 9.46039 14.0417 9.38641 14.0417V16.0417C9.73236 16.0417 10.0698 15.9724 10.388 15.83L9.57131 14.0044ZM9.38641 14.0417C9.30414 14.0417 9.24402 14.0266 9.19419 14.0044L8.37746 15.83C8.69873 15.9737 9.039 16.0417 9.38641 16.0417V14.0417ZM9.17388 13.9955C9.10691 13.9673 9.05184 13.9301 9.00221 13.8805L7.588 15.2947C7.82157 15.5283 8.09365 15.7108 8.39777 15.8388L9.17388 13.9955ZM9.00221 13.8805C8.95607 13.8343 8.91414 13.7759 8.87833 13.6958L7.0527 14.5126C7.18291 14.8036 7.3607 15.0674 7.588 15.2947L9.00221 13.8805ZM8.88715 13.7161C8.86415 13.6615 8.84833 13.5942 8.84833 13.5036H6.84833C6.84833 13.8427 6.91063 14.1758 7.04388 14.4922L8.88715 13.7161ZM8.84833 13.5036C8.84833 13.4212 8.86298 13.3501 8.89068 13.2826L7.04035 12.5235C6.9118 12.8368 6.84833 13.1661 6.84833 13.5036H8.84833ZM8.88221 13.3026C8.91896 13.2183 8.96038 13.1612 9.00221 13.1194L7.588 11.7052C7.35639 11.9368 7.17808 12.2069 7.04882 12.5034L8.88221 13.3026ZM9.00221 13.1194C9.05629 13.0653 9.11822 13.0222 9.19419 12.9882L8.37746 11.1626C8.08234 11.2946 7.81712 11.4761 7.588 11.7052L9.00221 13.1194ZM9.19419 12.9882C9.24402 12.9659 9.30414 12.9509 9.38641 12.9509V10.9509C9.039 10.9509 8.69873 11.0188 8.37746 11.1626L9.19419 12.9882ZM9.38641 12.9509C9.46039 12.9509 9.5185 12.9646 9.57131 12.9882L10.388 11.1626C10.0698 11.0202 9.73236 10.9509 9.38641 10.9509V12.9509ZM9.57131 12.9882C9.64407 13.0207 9.69865 13.0603 9.74367 13.1069L11.1825 11.7177C10.9541 11.4811 10.6864 11.296 10.388 11.1626L9.57131 12.9882ZM9.76848 13.1317C9.81065 13.1724 9.8497 13.2255 9.88329 13.3026L11.7167 12.5034C11.5843 12.1996 11.3987 11.9256 11.1577 11.6929L9.76848 13.1317ZM9.88329 13.3026C9.91075 13.3656 9.9245 13.4296 9.9245 13.5036H11.9245C11.9245 13.1577 11.8552 12.8213 11.7167 12.5034L9.88329 13.3026Z" fill="black" mask="url(#path-2-outside-1_2002_192)"/>
</svg>
